<svg width="33" height="37" viewBox="0 0 33 37" fill="none" xmlns="http://www.w3.org/2000/svg">
<g id="social-media/icon" clip-path="url(#clip0_4508_1504)">
<path id="Vector" d="M4.59748 2.60748C2.07623 2.63707 0.0504272 4.71099 0.0800201 7.23225L0.348285 30.0878C0.377878 32.6091 2.4518 34.6349 4.97305 34.6053L11.9869 34.523L11.8646 24.1094L8.09346 24.1536L8.0279 18.5683L11.7991 18.5241L11.7708 16.1171C11.6978 9.89608 14.478 6.97753 20.5919 6.90577C21.749 6.89219 23.7515 7.09727 24.5755 7.31619L24.6349 12.373C24.2059 12.3352 23.4556 12.3154 22.5199 12.3264C19.5201 12.3616 18.3764 13.5108 18.411 16.4606L18.4343 18.4462L24.4053 18.3761L23.4424 23.9735L18.4927 24.0316L18.615 34.4452L27.8286 34.337C30.3499 34.3074 32.3757 32.2335 32.3461 29.7122L32.0778 6.85668C32.0482 4.33542 29.9743 2.30962 27.4531 2.33922L4.59748 2.60748Z" fill="#FFFEFB"/>
</g>
<defs>
<clipPath id="clip0_4508_1504">
<rect width="32" height="36.5714" fill="white" transform="translate(0 0.375488) rotate(-0.672472)"/>
</clipPath>
</defs>
</svg>
