<svg width="33" height="37" viewBox="0 0 33 37" fill="none" xmlns="http://www.w3.org/2000/svg">
<g id="social-media/icon" clip-path="url(#clip0_4508_1510)">
<path id="Vector" d="M14.343 15.333C13.9303 15.616 13.5774 15.9775 13.3044 16.3969C13.0314 16.8162 12.8436 17.2853 12.7519 17.7772C12.5666 18.7707 12.7836 19.7971 13.3551 20.6307C13.9266 21.4642 14.8059 22.0365 15.7994 22.2218C16.7929 22.4071 17.8193 22.1901 18.6528 21.6186C19.4863 21.047 20.0587 20.1678 20.2439 19.1743C20.4292 18.1808 20.2122 17.1544 19.6407 16.3209C19.0692 15.4874 18.19 14.915 17.1965 14.7298C16.203 14.5445 15.1765 14.7615 14.343 15.333ZM24.4493 10.3283C24.0735 9.96128 23.6201 9.67372 23.125 9.48666C21.8263 8.99473 19.0053 9.04927 17.1843 9.09207C16.8914 9.09551 16.6201 9.10584 16.3844 9.1086C16.1487 9.11137 15.8701 9.11464 15.5701 9.11102C13.7485 9.11097 10.9412 9.11535 9.65451 9.64477C9.16395 9.8434 8.72456 10.1414 8.35038 10.5173C7.97619 10.8931 7.69578 11.3464 7.50872 11.8415C7.01678 13.1403 7.07855 15.9683 7.11421 17.7894C7.11765 18.0823 7.12798 18.3536 7.13066 18.5821C7.13334 18.8107 7.13653 19.0821 7.13282 19.375C7.13992 21.1965 7.14454 24.0252 7.66683 25.312C7.86545 25.8026 8.16349 26.242 8.53934 26.6162C8.91518 26.9904 9.3685 27.2708 9.86359 27.4578C11.1623 27.9498 13.9833 27.8952 15.8043 27.8524C16.0972 27.849 16.3685 27.8387 16.6042 27.8359C16.8399 27.8331 17.1185 27.8299 17.4185 27.8335C19.2401 27.8335 22.0474 27.8291 23.3341 27.2997C23.8246 27.1011 24.264 26.8031 24.6382 26.4272C25.0124 26.0514 25.2928 25.598 25.4799 25.103C25.979 23.8113 25.9174 20.9975 25.8746 19.1693C25.871 18.8694 25.8606 18.5909 25.8579 18.3552C25.8551 18.1195 25.8519 17.8481 25.8554 17.5409C25.8555 15.7193 25.851 12.9049 25.3216 11.6182C25.123 11.1276 24.8249 10.6882 24.4491 10.314L24.4493 10.3283ZM19.694 13.5629C20.9961 14.4116 21.9077 15.7426 22.2283 17.2634C22.5489 18.7841 22.2522 20.37 21.4036 21.672C20.9834 22.3167 20.4404 22.8723 19.8054 23.3071C19.1705 23.742 18.4561 24.0475 17.7032 24.2062C16.1824 24.5268 14.5966 24.2302 13.2946 23.3816C11.9925 22.5339 11.0806 21.2037 10.7593 19.6836C10.438 18.1636 10.7338 16.5781 11.5815 15.2761C12.4291 13.9741 13.7593 13.0621 15.2794 12.7409C16.7994 12.4196 18.3849 12.7153 19.6869 13.563L19.694 13.5629ZM21.7785 13.4456C21.5554 13.2982 21.3743 13.086 21.2642 12.8373C21.1541 12.5886 21.1295 12.3174 21.1763 12.0454C21.2231 11.7734 21.3561 11.5361 21.5395 11.3411C21.723 11.1461 21.9714 11.0146 22.2351 10.9615C22.4988 10.9084 22.7776 10.9266 23.0288 11.0308C23.2801 11.135 23.4964 11.3039 23.649 11.5235C23.8015 11.7432 23.8832 12.0065 23.8864 12.2779C23.8885 12.4565 23.8549 12.6355 23.7925 12.8005C23.7302 12.9655 23.6248 13.1168 23.5049 13.2467C23.385 13.3767 23.229 13.4786 23.0656 13.5519C22.9021 13.6253 22.724 13.6631 22.5454 13.6652C22.274 13.6684 22.0088 13.5929 21.7857 13.4455L21.7785 13.4456ZM32.3591 6.85668C32.3295 4.33542 30.2556 2.30962 27.7343 2.33922L4.87873 2.60748C2.35748 2.63707 0.331677 4.71099 0.36127 7.23225L0.629535 30.0878C0.659128 32.6091 2.73305 34.6349 5.2543 34.6053L28.1099 34.337C30.6311 34.3074 32.6569 32.2335 32.6273 29.7122L32.3591 6.85668ZM26.1051 27.8601C24.7852 29.2114 23.1688 29.6518 21.3415 29.7661C19.4571 29.8954 13.8004 29.9618 11.9136 29.8768C10.084 29.8054 8.45775 29.403 7.10645 28.0831C5.75515 26.7631 5.31472 25.1468 5.20755 23.3193C5.07829 21.435 5.01189 15.7783 5.09689 13.8914C5.16828 12.0619 5.56351 10.4357 6.88346 9.0844C8.2034 7.7331 9.82692 7.29258 11.6472 7.1855C13.5315 7.05623 19.1883 6.98984 21.0751 7.07484C22.9047 7.14623 24.5309 7.54146 25.8821 8.8614C27.2334 10.1813 27.6739 11.7977 27.781 13.6252C27.9102 15.5023 27.9765 21.152 27.8916 23.0459C27.8202 24.8755 27.425 26.5017 26.1051 27.853L26.1051 27.8601Z" fill="#FFFEFB"/>
</g>
<defs>
<clipPath id="clip0_4508_1510">
<rect width="32" height="36.5714" fill="white" transform="translate(0.28125 0.375488) rotate(-0.672472)"/>
</clipPath>
</defs>
</svg>
