<svg width="34" height="37" viewBox="0 0 34 37" fill="none" xmlns="http://www.w3.org/2000/svg">
<g id="social-media/icon" clip-path="url(#clip0_4508_1508)">
<path id="Vector" d="M28.3075 2.33922L5.45197 2.60748C2.93072 2.63707 0.904919 4.71099 0.934512 7.23225L1.20278 30.0878C1.23237 32.6091 3.30629 34.6349 5.82754 34.6053L11.0129 34.5444L10.8551 34.4891C10.4291 31.0582 10.5855 30.3849 11.8635 24.8552C12.1287 23.7091 12.4413 22.3482 12.8078 20.7081C12.8078 20.7081 12.274 19.6572 12.2558 18.1073C12.1965 13.0576 17.5829 12.4729 17.6273 16.2584C17.6386 17.2226 17.2677 18.4842 16.8691 19.8247C16.6423 20.5845 16.4157 21.3658 16.246 22.1179C15.8594 23.8725 17.1617 25.2788 18.883 25.2585C22.0042 25.2219 24.3584 21.9083 24.3027 17.1658C24.2534 12.9661 21.1977 10.066 16.8909 10.1166C11.8984 10.1752 9.01394 13.9522 9.05937 17.8233C9.07706 19.3304 9.68168 20.9377 10.4134 21.8077C10.5582 21.9775 10.5814 22.1272 10.5407 22.3063C10.466 22.6429 10.3301 23.2302 10.2211 23.6815C10.153 23.9681 10.0986 24.2044 10.0783 24.2975C10.0035 24.6199 9.83292 24.6933 9.49538 24.5401C7.29783 23.5444 5.88894 20.3607 5.85876 17.7895C5.79379 12.2541 9.74819 7.1288 17.3191 7.03993C23.4044 6.96851 28.1835 11.2484 28.2515 17.0409C28.3224 23.0833 24.5726 27.992 19.2802 28.0541C17.5017 28.075 15.8196 27.1732 15.2354 26.0871C15.2354 26.0871 14.3962 29.4472 14.1915 30.2711C13.8506 31.6538 12.9704 33.3499 12.2842 34.5295L28.6831 34.337C31.2044 34.3074 33.2302 32.2335 33.2006 29.7122L32.9323 6.85668C32.9027 4.33542 30.8288 2.30962 28.3075 2.33922Z" fill="#FFFEFB"/>
</g>
<defs>
<clipPath id="clip0_4508_1508">
<rect width="32" height="36.5714" fill="white" transform="translate(0.854492 0.375488) rotate(-0.672472)"/>
</clipPath>
</defs>
</svg>
