<svg width="33" height="37" viewBox="0 0 33 37" fill="none" xmlns="http://www.w3.org/2000/svg">
<g id="social-media/icon" clip-path="url(#clip0_4508_1506)">
<path id="Vector" d="M5.02424 2.60748C2.50298 2.63707 0.477185 4.71099 0.506778 7.23225L0.775043 30.0878C0.804636 32.6091 2.87855 34.6349 5.39981 34.6053L28.2554 34.337C30.7766 34.3074 32.8024 32.2335 32.7728 29.7122L32.5046 6.85668C32.475 4.33542 30.4011 2.30962 27.8798 2.33922L5.02424 2.60748ZM26.3146 8.358L19.0003 16.9159L27.8564 28.3413L21.0283 28.4214L15.6037 21.4918L9.56481 28.556L6.17219 28.5958L13.9938 19.4391L5.50177 8.60229L12.5013 8.52013L17.4117 14.8558L22.922 8.39782L26.3146 8.358ZM23.8257 26.3599L11.5025 10.4534L9.48119 10.4771L21.9402 26.382L23.8186 26.36L23.8257 26.3599Z" fill="#FFFEFB"/>
</g>
<defs>
<clipPath id="clip0_4508_1506">
<rect width="32" height="36.5714" fill="white" transform="translate(0.426758 0.375488) rotate(-0.672472)"/>
</clipPath>
</defs>
</svg>
