<svg width="34" height="37" viewBox="0 0 34 37" fill="none" xmlns="http://www.w3.org/2000/svg">
<g id="social-media/icon" clip-path="url(#clip0_4508_1512)">
<path id="Vector" d="M21.0638 18.4379L14.2189 14.6537L14.3096 22.3817L21.0638 18.4379ZM28.1611 2.33922L5.30549 2.60748C2.78423 2.63707 0.758435 4.71099 0.788028 7.23225L1.05629 30.0878C1.08589 32.6091 3.1598 34.6349 5.68106 34.6053L28.5366 34.337C31.0579 34.3074 33.0837 32.2335 33.0541 29.7122L32.7858 6.85668C32.7562 4.33542 30.6823 2.30962 28.1611 2.33922ZM29.3037 12.0479C29.8704 14.0842 29.9204 18.3411 29.9204 18.3411C29.9204 18.3411 29.9704 22.5979 29.4515 24.6399C29.1647 25.7719 28.2962 26.6322 27.1784 26.9453C25.1635 27.519 17.0284 27.6145 17.0284 27.6145C17.0284 27.6145 8.89321 27.71 6.86555 27.1909C5.74068 26.904 4.85219 26.0644 4.53897 24.9394C3.97217 22.9031 3.92221 18.6462 3.92221 18.6462C3.92221 18.6462 3.87216 14.3823 4.39108 12.3403C4.67782 11.2083 5.54593 10.3123 6.66376 9.99919C8.6786 9.4255 16.8138 9.33002 16.8138 9.33002C16.8138 9.33002 24.9489 9.23453 26.9767 9.76077C28.1015 10.0476 28.9904 10.9229 29.3037 12.0479Z" fill="#FFFEFB"/>
</g>
<defs>
<clipPath id="clip0_4508_1512">
<rect width="32" height="36.5714" fill="white" transform="translate(0.708008 0.375488) rotate(-0.672472)"/>
</clipPath>
</defs>
</svg>
