<svg width="45" height="64" viewBox="0 0 45 64" fill="none" xmlns="http://www.w3.org/2000/svg">
<g id="Vector (Stroke)">
<path fill-rule="evenodd" clip-rule="evenodd" d="M22.5 2.73103C17.2529 2.73103 12.2207 4.82973 8.51048 8.56543C4.80022 12.3011 2.71583 17.3678 2.71583 22.6509C2.71583 25.2995 3.92661 29.0469 5.87815 33.3021C7.81011 37.5145 10.3957 42.0744 12.9955 46.2946C15.5929 50.511 18.1922 54.3685 20.1431 57.173C21.1182 58.5747 21.9304 59.7122 22.4983 60.4985L22.5 60.5008L22.5017 60.4985C23.0696 59.7122 23.8818 58.5747 24.8569 57.173C26.8078 54.3685 29.4071 50.511 32.0045 46.2946C34.6043 42.0744 37.1899 37.5145 39.1218 33.3021C41.0734 29.0469 42.2842 25.2995 42.2842 22.6509C42.2842 17.3678 40.1998 12.3011 36.4895 8.56543C32.7793 4.82973 27.7471 2.73103 22.5 2.73103ZM22.5 62.3845C21.6131 63.0531 21.6128 63.0526 21.6128 63.0526L21.597 63.0313L21.5511 62.9693C21.5108 62.9148 21.4514 62.8342 21.3742 62.7289C21.2196 62.5182 20.9936 62.2085 20.7063 61.8107C20.1316 61.0151 19.3117 59.8668 18.3281 58.4529C16.3617 55.626 13.738 51.7326 11.1124 47.4705C8.48923 43.2123 5.85176 38.5662 3.86645 34.2374C1.90073 29.9513 0.5 25.8221 0.5 22.6509C0.5 16.7761 2.81785 11.142 6.94365 6.98786C11.0695 2.83375 16.6652 0.5 22.5 0.5C28.3348 0.5 33.9305 2.83375 38.0564 6.98786C42.1821 11.142 44.5 16.7761 44.5 22.6509C44.5 25.8221 43.0993 29.9513 41.1335 34.2374C39.1482 38.5662 36.5108 43.2123 33.8876 47.4705C31.262 51.7326 28.6383 55.626 26.6719 58.4529C25.6883 59.8668 24.8683 61.0151 24.2937 61.8107C24.0064 62.2085 23.7804 62.5182 23.6258 62.7289C23.5486 62.8342 23.4892 62.9148 23.4489 62.9693L23.403 63.0313L23.3881 63.0515C23.3881 63.0515 23.3869 63.0531 22.5 62.3845ZM22.5 62.3845L23.3881 63.0515C23.1789 63.3328 22.849 63.5 22.5 63.5C22.151 63.5 21.822 63.3339 21.6128 63.0526L22.5 62.3845ZM22.5 16.7546C19.2658 16.7546 16.6439 19.3945 16.6439 22.6509C16.6439 25.9074 19.2658 28.5472 22.5 28.5472C25.7342 28.5472 28.3561 25.9074 28.3561 22.6509C28.3561 19.3945 25.7342 16.7546 22.5 16.7546ZM14.4281 22.6509C14.4281 18.1623 18.042 14.5236 22.5 14.5236C26.958 14.5236 30.5719 18.1623 30.5719 22.6509C30.5719 27.1395 26.958 30.7782 22.5 30.7782C18.042 30.7782 14.4281 27.1395 14.4281 22.6509Z" fill="#FFEDD5"/>
<path d="M21.6128 63.0526C21.6128 63.0526 21.6131 63.0531 22.5 62.3845M21.6128 63.0526C21.822 63.3339 22.151 63.5 22.5 63.5C22.849 63.5 23.1789 63.3328 23.3881 63.0515M21.6128 63.0526L22.5 62.3845M21.6128 63.0526L21.597 63.0313L21.5511 62.9693C21.5108 62.9148 21.4514 62.8342 21.3742 62.7289C21.2196 62.5182 20.9936 62.2085 20.7063 61.8107C20.1316 61.0151 19.3117 59.8668 18.3281 58.4529C16.3617 55.626 13.738 51.7326 11.1124 47.4705C8.48923 43.2123 5.85176 38.5662 3.86645 34.2374C1.90073 29.9513 0.5 25.8221 0.5 22.6509C0.5 16.7761 2.81785 11.142 6.94365 6.98786C11.0695 2.83375 16.6652 0.5 22.5 0.5C28.3348 0.5 33.9305 2.83375 38.0564 6.98786C42.1821 11.142 44.5 16.7761 44.5 22.6509C44.5 25.8221 43.0993 29.9513 41.1335 34.2374C39.1482 38.5662 36.5108 43.2123 33.8876 47.4705C31.262 51.7326 28.6383 55.626 26.6719 58.4529C25.6883 59.8668 24.8683 61.0151 24.2937 61.8107C24.0064 62.2085 23.7804 62.5182 23.6258 62.7289C23.5486 62.8342 23.4892 62.9148 23.4489 62.9693L23.403 63.0313L23.3881 63.0515M22.5 62.3845C23.3869 63.0531 23.3881 63.0515 23.3881 63.0515M22.5 62.3845L23.3881 63.0515M8.51048 8.56543C12.2207 4.82973 17.2529 2.73103 22.5 2.73103C27.7471 2.73103 32.7793 4.82973 36.4895 8.56543C40.1998 12.3011 42.2842 17.3678 42.2842 22.6509C42.2842 25.2995 41.0734 29.0469 39.1218 33.3021C37.1899 37.5145 34.6043 42.0744 32.0045 46.2946C29.4071 50.511 26.8078 54.3685 24.8569 57.173C23.8818 58.5747 23.0696 59.7122 22.5017 60.4985L22.5 60.5008L22.4983 60.4985C21.9304 59.7122 21.1182 58.5747 20.1431 57.173C18.1922 54.3685 15.5929 50.511 12.9955 46.2946C10.3957 42.0744 7.81011 37.5145 5.87815 33.3021C3.92661 29.0469 2.71583 25.2995 2.71583 22.6509C2.71583 17.3678 4.80022 12.3011 8.51048 8.56543ZM16.6439 22.6509C16.6439 19.3945 19.2658 16.7546 22.5 16.7546C25.7342 16.7546 28.3561 19.3945 28.3561 22.6509C28.3561 25.9074 25.7342 28.5472 22.5 28.5472C19.2658 28.5472 16.6439 25.9074 16.6439 22.6509ZM22.5 14.5236C18.042 14.5236 14.4281 18.1623 14.4281 22.6509C14.4281 27.1395 18.042 30.7782 22.5 30.7782C26.958 30.7782 30.5719 27.1395 30.5719 22.6509C30.5719 18.1623 26.958 14.5236 22.5 14.5236Z" stroke="#FFEDD5" stroke-linecap="round" stroke-linejoin="round"/>
</g>
</svg>
