<svg width="57" height="72" viewBox="0 0 57 72" fill="none" xmlns="http://www.w3.org/2000/svg">
<path id="Vector" d="M47.4 28.1538V20.3077C47.4 15.4522 45.4088 10.7956 41.8643 7.3622C38.3199 3.92884 33.5126 2 28.5 2C23.4874 2 18.6801 3.92884 15.1357 7.3622C11.5912 10.7956 9.6 15.4522 9.6 20.3077V28.1538M6.9 28.1538H50.1C53.0823 28.1538 55.5 30.4957 55.5 33.3846V64.7692C55.5 67.6581 53.0823 70 50.1 70H6.9C3.91766 70 1.5 67.6581 1.5 64.7692V33.3846C1.5 30.4957 3.91766 28.1538 6.9 28.1538ZM31.2 49.0769C31.2 50.5214 29.9912 51.6923 28.5 51.6923C27.0088 51.6923 25.8 50.5214 25.8 49.0769C25.8 47.6325 27.0088 46.4615 28.5 46.4615C29.9912 46.4615 31.2 47.6325 31.2 49.0769Z" stroke="#FFEDD5" stroke-width="3" stroke-linecap="round" stroke-linejoin="round"/>
</svg>
