<svg width="75" height="62" viewBox="0 0 75 62" fill="none" xmlns="http://www.w3.org/2000/svg">
<path id="Vector" d="M71.9609 26.5288L73.2552 25.7706V25.7706L71.9609 26.5288ZM65.8461 16.0897L67.1404 15.3315L65.8461 16.0897ZM1.5 0C0.671573 0 0 0.671573 0 1.5C0 2.32843 0.671573 3 1.5 3V0ZM46.8 43.9063C46.8 44.7347 47.4716 45.4063 48.3 45.4063C49.1284 45.4063 49.8 44.7347 49.8 43.9063H46.8ZM50.1 9.21876C49.2716 9.21876 48.6 9.89033 48.6 10.7188C48.6 11.5472 49.2716 12.2188 50.1 12.2188V9.21876ZM3 34.6875C3 33.8591 2.32843 33.1875 1.5 33.1875C0.671573 33.1875 0 33.8591 0 34.6875H3ZM62.3031 11.4367L61.5506 12.7343L61.5506 12.7343L62.3031 11.4367ZM72.7765 48.5157L71.4698 47.7791L72.7765 48.5157ZM70.8 50.5402L70.0365 49.2491L70.0365 49.2491L70.8 50.5402ZM73.3041 29.2119L71.8561 29.6034V29.6034L73.3041 29.2119ZM4.2 50.5402L4.96355 49.2491L4.96354 49.2491L4.2 50.5402ZM2.22346 48.5157L3.53018 47.7791L3.53018 47.7791L2.22346 48.5157ZM1.5 11.0625C0.671573 11.0625 0 11.7341 0 12.5625C0 13.3909 0.671573 14.0625 1.5 14.0625V11.0625ZM23.1 14.0625C23.9284 14.0625 24.6 13.3909 24.6 12.5625C24.6 11.7341 23.9284 11.0625 23.1 11.0625V14.0625ZM1.5 22.125C0.671573 22.125 0 22.7966 0 23.625C0 24.4534 0.671573 25.125 1.5 25.125V22.125ZM15.9 25.125C16.7284 25.125 17.4 24.4534 17.4 23.625C17.4 22.7966 16.7284 22.125 15.9 22.125V25.125ZM63 51.2812C63 55.5784 59.6084 59 55.5 59V62C61.3327 62 66 57.1669 66 51.2812H63ZM55.5 59C51.3916 59 48 55.5784 48 51.2812H45C45 57.1669 49.6673 62 55.5 62V59ZM48 51.2812C48 46.9841 51.3916 43.5625 55.5 43.5625V40.5625C49.6673 40.5625 45 45.3956 45 51.2812H48ZM55.5 43.5625C59.6084 43.5625 63 46.9841 63 51.2812H66C66 45.3956 61.3327 40.5625 55.5 40.5625V43.5625ZM27 51.2812C27 55.5784 23.6084 59 19.5 59V62C25.3327 62 30 57.1669 30 51.2812H27ZM19.5 59C15.3916 59 12 55.5784 12 51.2812H9C9 57.1669 13.6673 62 19.5 62V59ZM12 51.2812C12 46.9841 15.3916 43.5625 19.5 43.5625V40.5625C13.6673 40.5625 9 45.3956 9 51.2812H12ZM19.5 43.5625C23.6084 43.5625 27 46.9841 27 51.2812H30C30 45.3956 25.3327 40.5625 19.5 40.5625V43.5625ZM72 32.2204V42.0625H75V32.2204H72ZM46.5 49.7812L28.5 49.7812V52.7812L46.5 52.7812V49.7812ZM73.2552 25.7706L67.1404 15.3315L64.5518 16.8478L70.6666 27.2869L73.2552 25.7706ZM37.5 0H1.5V3H37.5V0ZM49.8 43.9063V12.5625H46.8V43.9063H49.8ZM56.5851 9.21876H50.1V12.2188H56.5851V9.21876ZM3 42.0625V34.6875H0V42.0625H3ZM67.1404 15.3315C66.3865 14.0445 65.7692 12.9875 65.1783 12.17C64.5691 11.3272 63.9214 10.6412 63.0557 10.1391L61.5506 12.7343C61.9228 12.9502 62.2783 13.279 62.7469 13.9274C63.2338 14.601 63.769 15.5115 64.5518 16.8478L67.1404 15.3315ZM56.5851 12.2188C58.1079 12.2188 59.1412 12.2205 59.9513 12.3011C60.7276 12.3784 61.1803 12.5195 61.5506 12.7343L63.0557 10.1391C62.1881 9.63597 61.2751 9.41808 60.2485 9.31588C59.2558 9.21705 58.0491 9.21876 56.5851 9.21876V12.2188ZM37.5 3C40.089 3 41.8762 3.00334 43.2206 3.18848C44.5181 3.36717 45.1778 3.68934 45.6451 4.16792L47.7917 2.07222C46.6773 0.930725 45.2734 0.442867 43.6299 0.216533C42.0333 -0.00333929 40.0022 0 37.5 0V3ZM49.8 12.5625C49.8 9.99647 49.803 7.92459 49.5895 6.29801C49.3709 4.6319 48.9012 3.20869 47.7917 2.07222L45.6451 4.16792C46.1172 4.65151 46.4383 5.34206 46.6151 6.68843C46.797 8.07433 46.8 9.91362 46.8 12.5625H49.8ZM72 42.0625C72 43.8127 71.9986 45.0274 71.9154 45.968C71.8339 46.8892 71.683 47.4009 71.4698 47.7791L74.0833 49.2522C74.5935 48.3469 74.8044 47.3552 74.9037 46.2324C75.0014 45.1289 75 43.7588 75 42.0625H72ZM64.5 52.7812C66.154 52.7812 67.4973 52.7828 68.5805 52.6822C69.6857 52.5796 70.6679 52.361 71.5636 51.8314L70.0365 49.2491C69.679 49.4605 69.1936 49.6124 68.3032 49.695C67.3908 49.7797 66.2106 49.7812 64.5 49.7812V52.7812ZM71.4698 47.7791C71.1235 48.3936 70.6279 48.8993 70.0365 49.2491L71.5635 51.8314C72.6139 51.2102 73.4817 50.3195 74.0833 49.2522L71.4698 47.7791ZM75 32.2204C75 30.7757 75.0119 29.7814 74.7521 28.8203L71.8561 29.6034C71.9881 30.0915 72 30.6198 72 32.2204H75ZM70.6666 27.2869C71.4707 28.6596 71.7244 29.1166 71.8561 29.6034L74.7521 28.8203C74.4918 27.8579 73.9808 27.0093 73.2552 25.7706L70.6666 27.2869ZM10.5 49.7812C8.78941 49.7812 7.60919 49.7797 6.69682 49.6951C5.80646 49.6124 5.321 49.4605 4.96355 49.2491L3.43645 51.8314C4.33207 52.361 5.31431 52.5796 6.41953 52.6822C7.50273 52.7828 8.84597 52.7812 10.5 52.7812V49.7812ZM0 42.0625C0 43.7588 -0.00137031 45.1289 0.0962704 46.2324C0.195619 47.3552 0.406481 48.3469 0.916743 49.2522L3.53018 47.7791C3.31698 47.4009 3.16611 46.8892 3.0846 45.968C3.00137 45.0274 3 43.8127 3 42.0625H0ZM4.96354 49.2491C4.37209 48.8993 3.87652 48.3936 3.53018 47.7791L0.916741 49.2522C1.51831 50.3195 2.38611 51.2102 3.43646 51.8314L4.96354 49.2491ZM1.5 14.0625H23.1V11.0625H1.5V14.0625ZM1.5 25.125H15.9V22.125H1.5V25.125Z" fill="#FFEDD5"/>
</svg>
