<svg width="67" height="66" viewBox="0 0 67 66" fill="none" xmlns="http://www.w3.org/2000/svg">
<path id="Vector" d="M20.3863 61.3798L20.97 59.998L20.3863 61.3798ZM3.5 17.25C3.5 16.4216 2.82843 15.75 2 15.75C1.17157 15.75 0.5 16.4216 0.5 17.25H3.5ZM31.85 30.9677C31.85 30.1393 31.1784 29.4677 30.35 29.4677C29.5216 29.4677 28.85 30.1393 28.85 30.9677L31.85 30.9677ZM57.2 31.425C57.2 32.2534 57.8716 32.925 58.7 32.925C59.5284 32.925 60.2 32.2534 60.2 31.425H57.2ZM60.2 17.25C60.2 16.4216 59.5284 15.75 58.7 15.75C57.8716 15.75 57.2 16.4216 57.2 17.25H60.2ZM33.9613 65.3872C34.7496 65.1324 35.1821 64.2869 34.9273 63.4986C34.6726 62.7103 33.827 62.2778 33.0387 62.5326L33.9613 65.3872ZM51.3393 50.841C50.7536 51.4267 50.7536 52.3765 51.3393 52.9623C51.9251 53.5481 52.8749 53.5481 53.4607 52.9623L51.3393 50.841ZM56.3135 50.1095C56.8992 49.5237 56.8992 48.574 56.3135 47.9882C55.7277 47.4024 54.7779 47.4024 54.1921 47.9882L56.3135 50.1095ZM9.57485 21.2752L10.2282 19.925H10.2282L9.57485 21.2752ZM18.7766 25.7279L18.1233 27.0781L18.7766 25.7279ZM41.9234 25.7279L41.27 24.3776L41.9234 25.7279ZM51.1251 21.2752L50.4718 19.925L51.1251 21.2752ZM9.57485 10.0748L10.2282 11.425L9.57485 10.0748ZM18.7766 5.62214L18.1233 4.27191L18.7766 5.62214ZM41.9234 5.62214L41.27 6.97237L41.9234 5.62214ZM51.1251 10.0748L50.4718 11.425L51.1251 10.0748ZM12.1208 31.6584C11.3799 31.2879 10.4788 31.5882 10.1084 32.3292C9.73788 33.0701 10.0382 33.9712 10.7792 34.3416L12.1208 31.6584ZM17.0792 37.4916C17.8201 37.8621 18.7212 37.5618 19.0916 36.8208C19.4621 36.0799 19.1618 35.1788 18.4208 34.8084L17.0792 37.4916ZM46.7708 9.14164C47.5118 8.77115 47.8121 7.87015 47.4416 7.12918C47.0712 6.38821 46.1702 6.08787 45.4292 6.45836L46.7708 9.14164ZM13.9292 22.2084C13.1882 22.5788 12.8879 23.4799 13.2584 24.2208C13.6288 24.9618 14.5299 25.2621 15.2708 24.8916L13.9292 22.2084ZM19.8026 62.7616C24.6102 64.7924 27.3978 66 30.35 66V63C28.1477 63 26.011 62.1275 20.97 59.998L19.8026 62.7616ZM20.97 59.998C14.7949 57.3895 10.3194 55.4949 7.36839 53.7241C4.37033 51.925 3.5 50.5771 3.5 49.2581H0.5C0.5 52.2938 2.69406 54.4178 5.82477 56.2965C9.00252 58.2033 13.7202 60.1922 19.8026 62.7616L20.97 59.998ZM3.5 49.2581V17.25H0.5V49.2581H3.5ZM31.85 64.5L31.85 30.9677L28.85 30.9677L28.85 64.5H31.85ZM60.2 31.425V17.25H57.2V31.425H60.2ZM33.0387 62.5326C32.0389 62.8557 31.2331 63 30.35 63V66C31.6115 66 32.7326 65.7843 33.9613 65.3872L33.0387 62.5326ZM66.5 51.9C66.5 44.1128 60.1872 37.8 52.4 37.8V40.8C58.5304 40.8 63.5 45.7696 63.5 51.9H66.5ZM52.4 37.8C44.6128 37.8 38.3 44.1128 38.3 51.9H41.3C41.3 45.7696 46.2696 40.8 52.4 40.8V37.8ZM38.3 51.9C38.3 59.6872 44.6128 66 52.4 66V63C46.2696 63 41.3 58.0304 41.3 51.9H38.3ZM52.4 66C60.1872 66 66.5 59.6872 66.5 51.9H63.5C63.5 58.0304 58.5304 63 52.4 63V66ZM53.4607 52.9623L56.3135 50.1095L54.1921 47.9882L51.3393 50.841L53.4607 52.9623ZM8.92149 22.6254L18.1233 27.0781L19.43 24.3776L10.2282 19.925L8.92149 22.6254ZM42.5767 27.0781L51.7785 22.6254L50.4718 19.925L41.27 24.3776L42.5767 27.0781ZM10.2282 11.425L19.43 6.97237L18.1233 4.27191L8.92149 8.72456L10.2282 11.425ZM41.27 6.97237L50.4718 11.425L51.7785 8.72455L42.5767 4.27191L41.27 6.97237ZM19.43 6.97237C25.239 4.16144 27.7197 3 30.35 3V0C26.8712 0 23.6726 1.58665 18.1233 4.27191L19.43 6.97237ZM42.5767 4.27191C37.0274 1.58665 33.8288 0 30.35 0V3C32.9803 3 35.461 4.16144 41.27 6.97237L42.5767 4.27191ZM51.7785 22.6254C54.258 21.4256 56.272 20.4554 57.6459 19.5273C58.9997 18.6129 60.2 17.4323 60.2 15.675H57.2C57.2 15.8525 57.1378 16.2503 55.9667 17.0413C54.8157 17.8188 53.0422 18.6812 50.4718 19.925L51.7785 22.6254ZM50.4718 11.425C53.0422 12.6688 54.8157 13.5312 55.9667 14.3087C57.1378 15.0997 57.2 15.4975 57.2 15.675H60.2C60.2 13.9177 58.9997 12.7371 57.6459 11.8227C56.272 10.8946 54.258 9.92435 51.7785 8.72455L50.4718 11.425ZM18.1233 27.0781C23.6726 29.7633 26.8712 31.35 30.35 31.35V28.35C27.7197 28.35 25.239 27.1886 19.43 24.3776L18.1233 27.0781ZM41.27 24.3776C35.461 27.1886 32.9803 28.35 30.35 28.35V31.35C33.8288 31.35 37.0274 29.7633 42.5767 27.0781L41.27 24.3776ZM10.2282 19.925C7.6578 18.6812 5.88433 17.8188 4.73332 17.0413C3.56218 16.2503 3.5 15.8525 3.5 15.675H0.5C0.5 17.4323 1.7003 18.6129 3.05411 19.5273C4.42805 20.4554 6.442 21.4256 8.92149 22.6254L10.2282 19.925ZM8.92149 8.72456C6.442 9.92435 4.42805 10.8946 3.05411 11.8227C1.7003 12.7371 0.5 13.9177 0.5 15.675H3.5C3.5 15.4975 3.56218 15.0997 4.73332 14.3087C5.88433 13.5312 7.6578 12.6688 10.2282 11.425L8.92149 8.72456ZM10.7792 34.3416L17.0792 37.4916L18.4208 34.8084L12.1208 31.6584L10.7792 34.3416ZM45.4292 6.45836L13.9292 22.2084L15.2708 24.8916L46.7708 9.14164L45.4292 6.45836Z" fill="#FFEDD5"/>
</svg>
