<svg width="63" height="58" viewBox="0 0 63 58" fill="none" xmlns="http://www.w3.org/2000/svg">
<path id="Vector" d="M49.9615 38.1667L59.1923 35.875M59.1923 35.875L61.5 45.0417M59.1923 35.875C57.1423 41.6436 53.4187 46.6806 48.4906 50.351C43.5625 54.0214 37.6506 56.1609 31.5 56.5C25.8144 56.501 20.2662 54.7641 15.6092 51.5251C10.9521 48.2862 7.41182 43.7022 5.46923 38.3958M13.0385 19.8333L3.80769 22.125M3.80769 22.125L1.5 12.9583M3.80769 22.125C7.68462 11.5833 19.5923 1.5 31.5 1.5C37.2133 1.51595 42.7819 3.28639 47.4421 6.5686C52.1024 9.85082 55.6263 14.4841 57.5308 19.8333" stroke="#FFEDD5" stroke-width="3" stroke-linecap="round" stroke-linejoin="round"/>
</svg>
