<svg width="18" height="18" viewBox="0 0 18 18" fill="none" xmlns="http://www.w3.org/2000/svg">
<path id="Vector" d="M9 1V5.92308M10.8462 13.9231H13.9231M1 5.92308H17M1 5.92308V15.7692C1 16.0956 1.12967 16.4087 1.36048 16.6395C1.5913 16.8703 1.90435 17 2.23077 17H15.7692C16.0956 17 16.4087 16.8703 16.6395 16.6395C16.8703 16.4087 17 16.0956 17 15.7692V5.92308M1 5.92308L2.84615 2.36615C3.04518 1.96526 3.34975 1.62621 3.72709 1.3855C4.10443 1.14478 4.54026 1.0115 4.98769 1H13.0123C13.4703 1.00024 13.9191 1.12823 14.3083 1.36957C14.6974 1.61092 15.0116 1.95605 15.2154 2.36615L17 5.92308" stroke="#FFEDD5" stroke-width="1.5" stroke-linecap="round" stroke-linejoin="round"/>
</svg>
