<svg width="18" height="19" viewBox="0 0 18 19" fill="none" xmlns="http://www.w3.org/2000/svg">
<path id="Vector (Stroke)" fill-rule="evenodd" clip-rule="evenodd" d="M0 1.42796C0 1.08117 0.281124 0.800049 0.627907 0.800049H1.43665C2.50282 0.800049 3.45088 1.50617 3.71687 2.53978L4.13096 4.14889H16.5258C16.5313 4.14881 16.5369 4.14881 16.5425 4.14889H17.3721C17.7189 4.14889 18 4.43001 18 4.77679C18 5.12358 17.7189 5.4047 17.3721 5.4047H17.0969L16.626 9.6424C16.5002 10.7751 16.2988 11.6843 15.6764 12.2898C15.054 12.8953 14.1396 13.0716 13.0039 13.1662L6.06362 13.7446C5.9934 13.894 5.90646 14.0368 5.80346 14.1702L5.40234 14.6897C5.7778 14.9862 6.0587 15.3971 6.19241 15.8698H10.9704C11.2437 14.9035 12.1322 14.1954 13.186 14.1954C14.4576 14.1954 15.4884 15.2262 15.4884 16.4977C15.4884 17.7693 14.4576 18.8 13.186 18.8C12.1322 18.8 11.2437 18.092 10.9704 17.1256H6.19241C5.91909 18.092 5.0306 18.8 3.97674 18.8C2.7052 18.8 1.67442 17.7693 1.67442 16.4977C1.67442 15.2262 2.7052 14.1954 3.97674 14.1954C4.04863 14.1954 4.11975 14.1987 4.18995 14.2051L4.80941 13.4028C5.00371 13.1511 5.06871 12.8318 4.99159 12.5322L2.50068 2.85275C2.38303 2.39557 1.95228 2.05586 1.43665 2.05586H0.627907C0.281124 2.05586 0 1.77474 0 1.42796ZM6.25718 12.4683L12.8996 11.9148C14.0481 11.8191 14.5323 11.6508 14.8007 11.3897C15.0691 11.1285 15.2506 10.6492 15.3779 9.50371L15.8333 5.4047H4.45413L6.20778 12.2192C6.22903 12.3018 6.24547 12.3849 6.25718 12.4683ZM3.97674 15.4512C3.39877 15.4512 2.93023 15.9198 2.93023 16.4977C2.93023 17.0757 3.39877 17.5442 3.97674 17.5442C4.55472 17.5442 5.02326 17.0757 5.02326 16.4977C5.02326 15.9198 4.55472 15.4512 3.97674 15.4512ZM13.186 15.4512C12.6081 15.4512 12.1395 15.9198 12.1395 16.4977C12.1395 17.0757 12.6081 17.5442 13.186 17.5442C13.764 17.5442 14.2326 17.0757 14.2326 16.4977C14.2326 15.9198 13.764 15.4512 13.186 15.4512Z" fill="#FFEDD5"/>
</svg>
