<svg width="21" height="20" viewBox="0 0 21 20" fill="none" xmlns="http://www.w3.org/2000/svg">
<path id="Icon (Stroke)" fill-rule="evenodd" clip-rule="evenodd" d="M10.5 1.33333C5.71353 1.33333 1.83333 5.21353 1.83333 10C1.83333 12.2885 2.72033 14.3698 4.16929 15.9189C4.44916 15.6201 4.78995 15.2658 5.13749 14.9275C5.47329 14.6006 5.82844 14.2758 6.14835 14.0285C6.3075 13.9055 6.47257 13.7902 6.63254 13.7026C6.77089 13.6268 6.99472 13.5204 7.24695 13.5204H13.7534C14.1755 13.5204 14.593 13.7304 14.9147 13.9321C15.2628 14.1505 15.62 14.4387 15.9474 14.7347C16.3188 15.0705 16.6779 15.4404 16.9668 15.77C18.335 14.2376 19.1667 12.2159 19.1667 10C19.1667 5.21353 15.2865 1.33333 10.5 1.33333ZM16.0042 16.6947C15.7543 16.4061 15.4172 16.0528 15.0532 15.7237C14.7576 15.4565 14.4643 15.2236 14.2062 15.0617C14.0775 14.9809 13.9689 14.925 13.8821 14.8908C13.7913 14.8549 13.7519 14.8537 13.7534 14.8537H7.30849C7.29928 14.8581 7.28747 14.8641 7.2729 14.8721C7.1985 14.9128 7.09505 14.9819 6.9638 15.0834C6.7029 15.2851 6.38967 15.5693 6.06753 15.8829C5.74104 16.2007 5.41878 16.5355 5.15194 16.8203C6.62492 17.9769 8.48191 18.6667 10.5 18.6667C12.5901 18.6667 14.5073 17.9268 16.0042 16.6947ZM0.5 10C0.5 4.47715 4.97715 0 10.5 0C16.0228 0 20.5 4.47715 20.5 10C20.5 15.5228 16.0228 20 10.5 20C4.97715 20 0.5 15.5228 0.5 10ZM6.49058 6.81885C6.49058 4.64965 8.31299 2.91667 10.5003 2.91667C12.6876 2.91667 14.51 4.64965 14.51 6.81885C14.51 8.98805 12.6876 10.721 10.5003 10.721C8.31299 10.721 6.49058 8.98805 6.49058 6.81885ZM10.5003 4.25C9.00795 4.25 7.82391 5.42678 7.82391 6.81885C7.82391 8.21092 9.00795 9.3877 10.5003 9.3877C11.9926 9.3877 13.1766 8.21092 13.1766 6.81885C13.1766 5.42677 11.9926 4.25 10.5003 4.25Z" fill="#FFEDD5"/>
</svg>
