<svg width="27" height="22" viewBox="0 0 27 22" fill="none" xmlns="http://www.w3.org/2000/svg">
<g id="elements">
<path id="Ellipse 1647" d="M22.875 17.875C22.875 19.6009 21.4759 21 19.75 21C18.0241 21 16.625 19.6009 16.625 17.875C16.625 16.1491 18.0241 14.75 19.75 14.75C21.4759 14.75 22.875 16.1491 22.875 17.875Z" stroke="#675F5F" stroke-width="2"/>
<path id="Ellipse 1648" d="M10.375 17.875C10.375 19.6009 8.97589 21 7.25 21C5.52411 21 4.125 19.6009 4.125 17.875C4.125 16.1491 5.52411 14.75 7.25 14.75C8.97589 14.75 10.375 16.1491 10.375 17.875Z" stroke="#675F5F" stroke-width="2"/>
<path id="Vector 5060" d="M16.625 17.875H10.375M22.875 17.875H23.8289C24.1039 17.875 24.2414 17.875 24.3569 17.8606C25.2086 17.7544 25.8794 17.0836 25.9856 16.2319C26 16.1164 26 15.9789 26 15.7039V12.25C26 7.76269 22.3623 4.125 17.875 4.125M1 1H13.5C15.2678 1 16.1517 1 16.7008 1.54917C17.25 2.09835 17.25 2.98223 17.25 4.75V15.375M1 11.9375V14.75C1 15.9183 1 16.5024 1.2512 16.9375C1.41577 17.2225 1.65246 17.4592 1.9375 17.6238C2.3726 17.875 2.95673 17.875 4.125 17.875" stroke="#675F5F" stroke-width="2" stroke-linecap="round" stroke-linejoin="round"/>
<path id="Vector" d="M1 4.75H8.5M1 8.5H6" stroke="#675F5F" stroke-width="2" stroke-linecap="round" stroke-linejoin="round"/>
</g>
</svg>
