<svg width="1266" height="1753" viewBox="0 0 1266 1753" fill="none" xmlns="http://www.w3.org/2000/svg">
<path d="M3.48 10.53H8.535V12.42H3.48V10.53ZM3.66 14.85H9.375V16.8H1.245V6.30005H9.18V8.25005H3.66V14.85ZM10.5505 13.515V11.64H14.7955V13.515H10.5505ZM20.6831 16.92C19.8131 16.92 19.0381 16.745 18.3581 16.395C17.6781 16.035 17.1431 15.54 16.7531 14.91C16.3731 14.28 16.1831 13.565 16.1831 12.765C16.1831 11.955 16.3731 11.24 16.7531 10.62C17.1431 9.99005 17.6781 9.50005 18.3581 9.15005C19.0381 8.79005 19.8131 8.61005 20.6831 8.61005C21.5331 8.61005 22.2731 8.79005 22.9031 9.15005C23.5331 9.50005 23.9981 10.005 24.2981 10.665L22.4831 11.64C22.2731 11.26 22.0081 10.98 21.6881 10.8C21.3781 10.62 21.0381 10.53 20.6681 10.53C20.2681 10.53 19.9081 10.62 19.5881 10.8C19.2681 10.98 19.0131 11.235 18.8231 11.565C18.6431 11.895 18.5531 12.295 18.5531 12.765C18.5531 13.235 18.6431 13.635 18.8231 13.965C19.0131 14.295 19.2681 14.55 19.5881 14.73C19.9081 14.91 20.2681 15 20.6681 15C21.0381 15 21.3781 14.915 21.6881 14.745C22.0081 14.565 22.2731 14.28 22.4831 13.89L24.2981 14.88C23.9981 15.53 23.5331 16.035 22.9031 16.395C22.2731 16.745 21.5331 16.92 20.6831 16.92ZM29.3829 16.92C28.5229 16.92 27.7579 16.74 27.0879 16.38C26.4279 16.02 25.9029 15.53 25.5129 14.91C25.1329 14.28 24.9429 13.565 24.9429 12.765C24.9429 11.955 25.1329 11.24 25.5129 10.62C25.9029 9.99005 26.4279 9.50005 27.0879 9.15005C27.7579 8.79005 28.5229 8.61005 29.3829 8.61005C30.2329 8.61005 30.9929 8.79005 31.6629 9.15005C32.3329 9.50005 32.8579 9.98505 33.2379 10.605C33.6179 11.225 33.8079 11.945 33.8079 12.765C33.8079 13.565 33.6179 14.28 33.2379 14.91C32.8579 15.53 32.3329 16.02 31.6629 16.38C30.9929 16.74 30.2329 16.92 29.3829 16.92ZM29.3829 15C29.7729 15 30.1229 14.91 30.4329 14.73C30.7429 14.55 30.9879 14.295 31.1679 13.965C31.3479 13.625 31.4379 13.225 31.4379 12.765C31.4379 12.295 31.3479 11.895 31.1679 11.565C30.9879 11.235 30.7429 10.98 30.4329 10.8C30.1229 10.62 29.7729 10.53 29.3829 10.53C28.9929 10.53 28.6429 10.62 28.3329 10.8C28.0229 10.98 27.7729 11.235 27.5829 11.565C27.4029 11.895 27.3129 12.295 27.3129 12.765C27.3129 13.225 27.4029 13.625 27.5829 13.965C27.7729 14.295 28.0229 14.55 28.3329 14.73C28.6429 14.91 28.9929 15 29.3829 15ZM45.707 8.61005C46.347 8.61005 46.912 8.74005 47.402 9.00005C47.902 9.25005 48.292 9.64005 48.572 10.17C48.862 10.69 49.007 11.36 49.007 12.18V16.8H46.667V12.54C46.667 11.89 46.532 11.41 46.262 11.1C45.992 10.79 45.612 10.635 45.122 10.635C44.782 10.635 44.477 10.715 44.207 10.875C43.937 11.025 43.727 11.255 43.577 11.565C43.427 11.875 43.352 12.27 43.352 12.75V16.8H41.012V12.54C41.012 11.89 40.877 11.41 40.607 11.1C40.347 10.79 39.972 10.635 39.482 10.635C39.142 10.635 38.837 10.715 38.567 10.875C38.297 11.025 38.087 11.255 37.937 11.565C37.787 11.875 37.712 12.27 37.712 12.75V16.8H35.372V8.73005H37.607V10.935L37.187 10.29C37.467 9.74005 37.862 9.32505 38.372 9.04505C38.892 8.75505 39.482 8.61005 40.142 8.61005C40.882 8.61005 41.527 8.80005 42.077 9.18005C42.637 9.55005 43.007 10.12 43.187 10.89L42.362 10.665C42.632 10.035 43.062 9.53505 43.652 9.16505C44.252 8.79505 44.937 8.61005 45.707 8.61005ZM61.4394 8.61005C62.0794 8.61005 62.6444 8.74005 63.1344 9.00005C63.6344 9.25005 64.0244 9.64005 64.3044 10.17C64.5944 10.69 64.7394 11.36 64.7394 12.18V16.8H62.3994V12.54C62.3994 11.89 62.2644 11.41 61.9944 11.1C61.7244 10.79 61.3444 10.635 60.8544 10.635C60.5144 10.635 60.2094 10.715 59.9394 10.875C59.6694 11.025 59.4594 11.255 59.3094 11.565C59.1594 11.875 59.0844 12.27 59.0844 12.75V16.8H56.7444V12.54C56.7444 11.89 56.6094 11.41 56.3394 11.1C56.0794 10.79 55.7044 10.635 55.2144 10.635C54.8744 10.635 54.5694 10.715 54.2994 10.875C54.0294 11.025 53.8194 11.255 53.6694 11.565C53.5194 11.875 53.4444 12.27 53.4444 12.75V16.8H51.1044V8.73005H53.3394V10.935L52.9194 10.29C53.1994 9.74005 53.5944 9.32505 54.1044 9.04505C54.6244 8.75505 55.2144 8.61005 55.8744 8.61005C56.6144 8.61005 57.2594 8.80005 57.8094 9.18005C58.3694 9.55005 58.7394 10.12 58.9194 10.89L58.0944 10.665C58.3644 10.035 58.7944 9.53505 59.3844 9.16505C59.9844 8.79505 60.6694 8.61005 61.4394 8.61005ZM70.9004 16.92C69.9804 16.92 69.1704 16.74 68.4704 16.38C67.7804 16.02 67.2454 15.53 66.8654 14.91C66.4854 14.28 66.2954 13.565 66.2954 12.765C66.2954 11.955 66.4804 11.24 66.8504 10.62C67.2304 9.99005 67.7454 9.50005 68.3954 9.15005C69.0454 8.79005 69.7804 8.61005 70.6004 8.61005C71.3904 8.61005 72.1004 8.78005 72.7304 9.12005C73.3704 9.45005 73.8754 9.93005 74.2454 10.56C74.6154 11.18 74.8004 11.925 74.8004 12.795C74.8004 12.885 74.7954 12.99 74.7854 13.11C74.7754 13.22 74.7654 13.325 74.7554 13.425H68.2004V12.06H73.5254L72.6254 12.465C72.6254 12.045 72.5404 11.68 72.3704 11.37C72.2004 11.06 71.9654 10.82 71.6654 10.65C71.3654 10.47 71.0154 10.38 70.6154 10.38C70.2154 10.38 69.8604 10.47 69.5504 10.65C69.2504 10.82 69.0154 11.065 68.8454 11.385C68.6754 11.695 68.5904 12.065 68.5904 12.495V12.855C68.5904 13.295 68.6854 13.685 68.8754 14.025C69.0754 14.355 69.3504 14.61 69.7004 14.79C70.0604 14.96 70.4804 15.045 70.9604 15.045C71.3904 15.045 71.7654 14.98 72.0854 14.85C72.4154 14.72 72.7154 14.525 72.9854 14.265L74.2304 15.615C73.8604 16.035 73.3954 16.36 72.8354 16.59C72.2754 16.81 71.6304 16.92 70.9004 16.92ZM76.3583 16.8V8.73005H78.5933V11.01L78.2783 10.35C78.5183 9.78005 78.9033 9.35005 79.4333 9.06005C79.9633 8.76005 80.6083 8.61005 81.3683 8.61005V10.77C81.2683 10.76 81.1783 10.755 81.0983 10.755C81.0183 10.745 80.9333 10.74 80.8433 10.74C80.2033 10.74 79.6833 10.925 79.2833 11.295C78.8933 11.655 78.6983 12.22 78.6983 12.99V16.8H76.3583ZM86.6011 16.92C85.7311 16.92 84.9561 16.745 84.2761 16.395C83.5961 16.035 83.0611 15.54 82.6711 14.91C82.2911 14.28 82.1011 13.565 82.1011 12.765C82.1011 11.955 82.2911 11.24 82.6711 10.62C83.0611 9.99005 83.5961 9.50005 84.2761 9.15005C84.9561 8.79005 85.7311 8.61005 86.6011 8.61005C87.4511 8.61005 88.1911 8.79005 88.8211 9.15005C89.4511 9.50005 89.9161 10.005 90.2161 10.665L88.4011 11.64C88.1911 11.26 87.9261 10.98 87.6061 10.8C87.2961 10.62 86.9561 10.53 86.5861 10.53C86.1861 10.53 85.8261 10.62 85.5061 10.8C85.1861 10.98 84.9311 11.235 84.7411 11.565C84.5611 11.895 84.4711 12.295 84.4711 12.765C84.4711 13.235 84.5611 13.635 84.7411 13.965C84.9311 14.295 85.1861 14.55 85.5061 14.73C85.8261 14.91 86.1861 15 86.5861 15C86.9561 15 87.2961 14.915 87.6061 14.745C87.9261 14.565 88.1911 14.28 88.4011 13.89L90.2161 14.88C89.9161 15.53 89.4511 16.035 88.8211 16.395C88.1911 16.745 87.4511 16.92 86.6011 16.92ZM95.4659 16.92C94.5459 16.92 93.7359 16.74 93.0359 16.38C92.3459 16.02 91.8109 15.53 91.4309 14.91C91.0509 14.28 90.8609 13.565 90.8609 12.765C90.8609 11.955 91.0459 11.24 91.4159 10.62C91.7959 9.99005 92.3109 9.50005 92.9609 9.15005C93.6109 8.79005 94.3459 8.61005 95.1659 8.61005C95.9559 8.61005 96.6659 8.78005 97.2959 9.12005C97.9359 9.45005 98.4409 9.93005 98.8109 10.56C99.1809 11.18 99.3659 11.925 99.3659 12.795C99.3659 12.885 99.3609 12.99 99.3509 13.11C99.3409 13.22 99.3309 13.325 99.3209 13.425H92.7659V12.06H98.0909L97.1909 12.465C97.1909 12.045 97.1059 11.68 96.9359 11.37C96.7659 11.06 96.5309 10.82 96.2309 10.65C95.9309 10.47 95.5809 10.38 95.1809 10.38C94.7809 10.38 94.4259 10.47 94.1159 10.65C93.8159 10.82 93.5809 11.065 93.4109 11.385C93.2409 11.695 93.1559 12.065 93.1559 12.495V12.855C93.1559 13.295 93.2509 13.685 93.4409 14.025C93.6409 14.355 93.9159 14.61 94.2659 14.79C94.6259 14.96 95.0459 15.045 95.5259 15.045C95.9559 15.045 96.3309 14.98 96.6509 14.85C96.9809 14.72 97.2809 14.525 97.5509 14.265L98.7959 15.615C98.4259 16.035 97.9609 16.36 97.4009 16.59C96.8409 16.81 96.1959 16.92 95.4659 16.92Z" fill="#1C1C1C"/>
<rect x="243" y="0.800049" width="95" height="95" rx="47.5" fill="#840000"/>
<path d="M269.322 42.376C270.794 42.376 271.866 42.696 272.538 43.336C273.221 43.9654 273.562 44.8347 273.562 45.944C273.562 46.4454 273.488 46.9254 273.338 47.384C273.189 47.832 272.938 48.2374 272.586 48.6C272.245 48.952 271.792 49.2294 271.226 49.432C270.661 49.6347 269.962 49.736 269.13 49.736H268.09V53.8H265.674V42.376H269.322ZM269.194 44.36H268.09V47.752H268.89C269.349 47.752 269.744 47.6934 270.074 47.576C270.405 47.4587 270.661 47.272 270.842 47.016C271.024 46.76 271.114 46.4294 271.114 46.024C271.114 45.4587 270.96 45.0427 270.65 44.776C270.341 44.4987 269.856 44.36 269.194 44.36ZM280.409 44.904C280.527 44.904 280.665 44.9094 280.825 44.92C280.985 44.9307 281.113 44.9467 281.209 44.968L281.033 47.208C280.959 47.1867 280.847 47.1707 280.697 47.16C280.559 47.1387 280.436 47.128 280.329 47.128C280.02 47.128 279.721 47.1707 279.433 47.256C279.145 47.3307 278.884 47.4534 278.649 47.624C278.425 47.7947 278.244 48.024 278.105 48.312C277.977 48.5894 277.913 48.936 277.913 49.352V53.8H275.529V45.064H277.337L277.689 46.536H277.801C277.972 46.2374 278.185 45.9654 278.441 45.72C278.697 45.4747 278.991 45.2774 279.321 45.128C279.663 44.9787 280.025 44.904 280.409 44.904ZM290.418 49.416C290.418 50.1414 290.317 50.7867 290.114 51.352C289.922 51.9174 289.64 52.3974 289.266 52.792C288.904 53.176 288.461 53.4694 287.938 53.672C287.416 53.864 286.824 53.96 286.162 53.96C285.554 53.96 284.989 53.864 284.466 53.672C283.954 53.4694 283.512 53.176 283.138 52.792C282.765 52.3974 282.472 51.9174 282.258 51.352C282.056 50.7867 281.954 50.1414 281.954 49.416C281.954 48.4454 282.125 47.6294 282.466 46.968C282.808 46.296 283.298 45.784 283.938 45.432C284.578 45.08 285.336 44.904 286.21 44.904C287.032 44.904 287.757 45.08 288.386 45.432C289.016 45.784 289.512 46.296 289.874 46.968C290.237 47.6294 290.418 48.4454 290.418 49.416ZM284.386 49.416C284.386 49.992 284.445 50.4774 284.562 50.872C284.69 51.256 284.888 51.5494 285.154 51.752C285.421 51.944 285.768 52.04 286.194 52.04C286.621 52.04 286.962 51.944 287.218 51.752C287.485 51.5494 287.677 51.256 287.794 50.872C287.922 50.4774 287.986 49.992 287.986 49.416C287.986 48.84 287.922 48.36 287.794 47.976C287.677 47.592 287.485 47.304 287.218 47.112C286.952 46.92 286.605 46.824 286.178 46.824C285.549 46.824 285.09 47.0427 284.802 47.48C284.525 47.9067 284.386 48.552 284.386 49.416ZM302.645 44.904C303.637 44.904 304.383 45.16 304.885 45.672C305.397 46.1734 305.653 46.984 305.653 48.104V53.8H303.269V48.696C303.269 48.0667 303.162 47.5974 302.949 47.288C302.735 46.968 302.405 46.808 301.957 46.808C301.327 46.808 300.879 47.032 300.613 47.48C300.346 47.928 300.213 48.5734 300.213 49.416V53.8H297.829V48.696C297.829 48.28 297.781 47.9334 297.685 47.656C297.589 47.3787 297.445 47.1707 297.253 47.032C297.061 46.8827 296.815 46.808 296.517 46.808C296.079 46.808 295.733 46.92 295.477 47.144C295.221 47.368 295.039 47.6934 294.933 48.12C294.826 48.5467 294.773 49.0694 294.773 49.688V53.8H292.389V45.064H294.213L294.533 46.184H294.661C294.842 45.8854 295.066 45.6454 295.333 45.464C295.599 45.272 295.893 45.1334 296.213 45.048C296.543 44.952 296.874 44.904 297.205 44.904C297.845 44.904 298.389 45.0107 298.837 45.224C299.285 45.4267 299.626 45.7467 299.861 46.184H300.069C300.335 45.736 300.703 45.4107 301.173 45.208C301.653 45.0054 302.143 44.904 302.645 44.904ZM316.043 49.416C316.043 50.1414 315.942 50.7867 315.739 51.352C315.547 51.9174 315.265 52.3974 314.891 52.792C314.529 53.176 314.086 53.4694 313.563 53.672C313.041 53.864 312.449 53.96 311.787 53.96C311.179 53.96 310.614 53.864 310.091 53.672C309.579 53.4694 309.137 53.176 308.763 52.792C308.39 52.3974 308.097 51.9174 307.883 51.352C307.681 50.7867 307.579 50.1414 307.579 49.416C307.579 48.4454 307.75 47.6294 308.091 46.968C308.433 46.296 308.923 45.784 309.563 45.432C310.203 45.08 310.961 44.904 311.835 44.904C312.657 44.904 313.382 45.08 314.011 45.432C314.641 45.784 315.137 46.296 315.499 46.968C315.862 47.6294 316.043 48.4454 316.043 49.416ZM310.011 49.416C310.011 49.992 310.07 50.4774 310.187 50.872C310.315 51.256 310.513 51.5494 310.779 51.752C311.046 51.944 311.393 52.04 311.819 52.04C312.246 52.04 312.587 51.944 312.843 51.752C313.11 51.5494 313.302 51.256 313.419 50.872C313.547 50.4774 313.611 49.992 313.611 49.416C313.611 48.84 313.547 48.36 313.419 47.976C313.302 47.592 313.11 47.304 312.843 47.112C312.577 46.92 312.23 46.824 311.803 46.824C311.174 46.824 310.715 47.0427 310.427 47.48C310.15 47.9067 310.011 48.552 310.011 49.416Z" fill="#FFEDD5"/>
<rect x="243.5" y="152.3" width="246" height="261" rx="4.5" stroke="#9747FF" stroke-dasharray="10 5"/>
<path d="M299.375 254.675C299.375 256.401 297.976 257.8 296.25 257.8C294.524 257.8 293.125 256.401 293.125 254.675C293.125 252.949 294.524 251.55 296.25 251.55C297.976 251.55 299.375 252.949 299.375 254.675Z" stroke="#675F5F" stroke-width="2"/>
<path d="M286.875 254.675C286.875 256.401 285.476 257.8 283.75 257.8C282.024 257.8 280.625 256.401 280.625 254.675C280.625 252.949 282.024 251.55 283.75 251.55C285.476 251.55 286.875 252.949 286.875 254.675Z" stroke="#675F5F" stroke-width="2"/>
<path d="M293.125 254.675H286.875M299.375 254.675H300.329C300.604 254.675 300.741 254.675 300.857 254.661C301.709 254.554 302.379 253.884 302.486 253.032C302.5 252.916 302.5 252.779 302.5 252.504V249.05C302.5 244.563 298.862 240.925 294.375 240.925M277.5 237.8H290C291.768 237.8 292.652 237.8 293.201 238.349C293.75 238.898 293.75 239.782 293.75 241.55V252.175M277.5 248.738V251.55C277.5 252.718 277.5 253.302 277.751 253.738C277.916 254.023 278.152 254.259 278.438 254.424C278.873 254.675 279.457 254.675 280.625 254.675" stroke="#675F5F" stroke-width="2" stroke-linecap="round" stroke-linejoin="round"/>
<path d="M277.5 241.55H285M277.5 245.3H282.5" stroke="#675F5F" stroke-width="2" stroke-linecap="round" stroke-linejoin="round"/>
<path d="M300.375 295.875C300.375 297.601 298.976 299 297.25 299C295.524 299 294.125 297.601 294.125 295.875C294.125 294.149 295.524 292.75 297.25 292.75C298.976 292.75 300.375 294.149 300.375 295.875Z" stroke="#840000" stroke-width="2"/>
<path d="M287.875 295.875C287.875 297.601 286.476 299 284.75 299C283.024 299 281.625 297.601 281.625 295.875C281.625 294.149 283.024 292.75 284.75 292.75C286.476 292.75 287.875 294.149 287.875 295.875Z" stroke="#840000" stroke-width="2"/>
<path d="M294.125 295.875H287.875M300.375 295.875H301.329C301.604 295.875 301.741 295.875 301.857 295.861C302.709 295.754 303.379 295.084 303.486 294.232C303.5 294.116 303.5 293.979 303.5 293.704V290.25C303.5 285.763 299.862 282.125 295.375 282.125M278.5 279H291C292.768 279 293.652 279 294.201 279.549C294.75 280.098 294.75 280.982 294.75 282.75V293.375M278.5 289.938V292.75C278.5 293.918 278.5 294.502 278.751 294.938C278.916 295.223 279.152 295.459 279.438 295.624C279.873 295.875 280.457 295.875 281.625 295.875" stroke="#840000" stroke-width="2" stroke-linecap="round" stroke-linejoin="round"/>
<path d="M278.5 282.75H286M278.5 286.5H283.5" stroke="#840000" stroke-width="2" stroke-linecap="round" stroke-linejoin="round"/>
<path d="M299.375 344.875C299.375 346.601 297.976 348 296.25 348C294.524 348 293.125 346.601 293.125 344.875C293.125 343.149 294.524 341.75 296.25 341.75C297.976 341.75 299.375 343.149 299.375 344.875Z" stroke="#FFEDD5" stroke-width="2"/>
<path d="M286.875 344.875C286.875 346.601 285.476 348 283.75 348C282.024 348 280.625 346.601 280.625 344.875C280.625 343.149 282.024 341.75 283.75 341.75C285.476 341.75 286.875 343.149 286.875 344.875Z" stroke="#FFEDD5" stroke-width="2"/>
<path d="M293.125 344.875H286.875M299.375 344.875H300.329C300.604 344.875 300.741 344.875 300.857 344.861C301.709 344.754 302.379 344.084 302.486 343.232C302.5 343.116 302.5 342.979 302.5 342.704V339.25C302.5 334.763 298.862 331.125 294.375 331.125M277.5 328H290C291.768 328 292.652 328 293.201 328.549C293.75 329.098 293.75 329.982 293.75 331.75V342.375M277.5 338.938V341.75C277.5 342.918 277.5 343.502 277.751 343.938C277.916 344.223 278.152 344.459 278.438 344.624C278.873 344.875 279.457 344.875 280.625 344.875" stroke="#FFEDD5" stroke-width="2" stroke-linecap="round" stroke-linejoin="round"/>
<path d="M277.5 331.75H285M277.5 335.5H282.5" stroke="#FFEDD5" stroke-width="2" stroke-linecap="round" stroke-linejoin="round"/>
<path d="M298.375 388.875C298.375 390.601 296.976 392 295.25 392C293.524 392 292.125 390.601 292.125 388.875C292.125 387.149 293.524 385.75 295.25 385.75C296.976 385.75 298.375 387.149 298.375 388.875Z" stroke="#FFFEFB" stroke-width="2"/>
<path d="M285.875 388.875C285.875 390.601 284.476 392 282.75 392C281.024 392 279.625 390.601 279.625 388.875C279.625 387.149 281.024 385.75 282.75 385.75C284.476 385.75 285.875 387.149 285.875 388.875Z" stroke="#FFFEFB" stroke-width="2"/>
<path d="M292.125 388.875H285.875M298.375 388.875H299.329C299.604 388.875 299.741 388.875 299.857 388.861C300.709 388.754 301.379 388.084 301.486 387.232C301.5 387.116 301.5 386.979 301.5 386.704V383.25C301.5 378.763 297.862 375.125 293.375 375.125M276.5 372H289C290.768 372 291.652 372 292.201 372.549C292.75 373.098 292.75 373.982 292.75 375.75V386.375M276.5 382.938V385.75C276.5 386.918 276.5 387.502 276.751 387.938C276.916 388.223 277.152 388.459 277.438 388.624C277.873 388.875 278.457 388.875 279.625 388.875" stroke="#FFFEFB" stroke-width="2" stroke-linecap="round" stroke-linejoin="round"/>
<path d="M276.5 375.75H284M276.5 379.5H281.5" stroke="#FFFEFB" stroke-width="2" stroke-linecap="round" stroke-linejoin="round"/>
<path d="M362.6 210.3H360.667C355.638 210.3 353.124 210.3 351.562 208.794C350 207.287 350 204.863 350 200.014V193.5H374V196.5" stroke="#141B34" stroke-width="2" stroke-linecap="round" stroke-linejoin="round"/>
<path d="M369.2 198.3C366.549 198.3 364.4 200.471 364.4 203.148C364.4 204.68 365 205.87 366.2 206.933C367.046 207.683 368.071 208.928 368.686 209.937C368.981 210.421 369.398 210.421 369.715 209.937C370.361 208.948 371.355 207.683 372.2 206.933C373.4 205.87 374 204.68 374 203.148C374 200.471 371.851 198.3 369.2 198.3Z" stroke="#141B34" stroke-width="2" stroke-linejoin="round"/>
<path d="M369.2 203.1H369.211" stroke="#141B34" stroke-width="2" stroke-linecap="round" stroke-linejoin="round"/>
<path d="M350 193.5L351.154 190.731C352.049 188.583 352.496 187.509 353.403 186.905C354.31 186.3 355.473 186.3 357.8 186.3H366.2C368.527 186.3 369.69 186.3 370.597 186.905C371.504 187.509 371.951 188.583 372.846 190.731L374 193.5" stroke="#141B34" stroke-width="2" stroke-linecap="round"/>
<path d="M362 193.5V186.3" stroke="#141B34" stroke-width="2" stroke-linecap="round"/>
<path d="M359.6 198.3H362" stroke="#141B34" stroke-width="2" stroke-linecap="round"/>
<path d="M362.6 259.3H360.667C355.638 259.3 353.124 259.3 351.562 257.794C350 256.287 350 253.863 350 249.014V242.5H374V245.5" stroke="#675F5F" stroke-width="2" stroke-linecap="round" stroke-linejoin="round"/>
<path d="M369.2 247.3C366.549 247.3 364.4 249.471 364.4 252.148C364.4 253.68 365 254.87 366.2 255.933C367.046 256.683 368.071 257.928 368.686 258.937C368.981 259.421 369.398 259.421 369.715 258.937C370.361 257.948 371.355 256.683 372.2 255.933C373.4 254.87 374 253.68 374 252.148C374 249.471 371.851 247.3 369.2 247.3Z" stroke="#675F5F" stroke-width="2" stroke-linejoin="round"/>
<path d="M369.2 252.1H369.211" stroke="#675F5F" stroke-width="2" stroke-linecap="round" stroke-linejoin="round"/>
<path d="M350 242.5L351.154 239.731C352.049 237.583 352.496 236.509 353.403 235.905C354.31 235.3 355.473 235.3 357.8 235.3H366.2C368.527 235.3 369.69 235.3 370.597 235.905C371.504 236.509 371.951 237.583 372.846 239.731L374 242.5" stroke="#675F5F" stroke-width="2" stroke-linecap="round"/>
<path d="M362 242.5V235.3" stroke="#675F5F" stroke-width="2" stroke-linecap="round"/>
<path d="M359.6 247.3H362" stroke="#675F5F" stroke-width="2" stroke-linecap="round"/>
<path d="M363.6 300.5H361.667C356.638 300.5 354.124 300.5 352.562 298.994C351 297.487 351 295.063 351 290.214V283.7H375V286.7" stroke="#840000" stroke-width="2" stroke-linecap="round" stroke-linejoin="round"/>
<path d="M370.2 288.5C367.549 288.5 365.4 290.671 365.4 293.348C365.4 294.88 366 296.07 367.2 297.133C368.046 297.883 369.071 299.128 369.686 300.137C369.981 300.621 370.398 300.621 370.715 300.137C371.361 299.148 372.355 297.883 373.2 297.133C374.4 296.07 375 294.88 375 293.348C375 290.671 372.851 288.5 370.2 288.5Z" stroke="#840000" stroke-width="2" stroke-linejoin="round"/>
<path d="M370.2 293.3H370.211" stroke="#840000" stroke-width="2" stroke-linecap="round" stroke-linejoin="round"/>
<path d="M351 283.7L352.154 280.931C353.049 278.783 353.496 277.709 354.403 277.105C355.31 276.5 356.473 276.5 358.8 276.5H367.2C369.527 276.5 370.69 276.5 371.597 277.105C372.504 277.709 372.951 278.783 373.846 280.931L375 283.7" stroke="#840000" stroke-width="2" stroke-linecap="round"/>
<path d="M363 283.7V276.5" stroke="#840000" stroke-width="2" stroke-linecap="round"/>
<path d="M360.6 288.5H363" stroke="#840000" stroke-width="2" stroke-linecap="round"/>
<path d="M362.6 349.5H360.667C355.638 349.5 353.124 349.5 351.562 347.994C350 346.487 350 344.063 350 339.214V332.7H374V335.7" stroke="#FFEDD5" stroke-width="2" stroke-linecap="round" stroke-linejoin="round"/>
<path d="M369.2 337.5C366.549 337.5 364.4 339.671 364.4 342.348C364.4 343.88 365 345.07 366.2 346.133C367.046 346.883 368.071 348.128 368.686 349.137C368.981 349.621 369.398 349.621 369.715 349.137C370.361 348.148 371.355 346.883 372.2 346.133C373.4 345.07 374 343.88 374 342.348C374 339.671 371.851 337.5 369.2 337.5Z" stroke="#FFEDD5" stroke-width="2" stroke-linejoin="round"/>
<path d="M369.2 342.3H369.211" stroke="#FFEDD5" stroke-width="2" stroke-linecap="round" stroke-linejoin="round"/>
<path d="M350 332.7L351.154 329.931C352.049 327.783 352.496 326.709 353.403 326.105C354.31 325.5 355.473 325.5 357.8 325.5H366.2C368.527 325.5 369.69 325.5 370.597 326.105C371.504 326.709 371.951 327.783 372.846 329.931L374 332.7" stroke="#FFEDD5" stroke-width="2" stroke-linecap="round"/>
<path d="M362 332.7V325.5" stroke="#FFEDD5" stroke-width="2" stroke-linecap="round"/>
<path d="M359.6 337.5H362" stroke="#FFEDD5" stroke-width="2" stroke-linecap="round"/>
<path d="M361.6 393.5H359.667C354.638 393.5 352.124 393.5 350.562 391.994C349 390.487 349 388.063 349 383.214V376.7H373V379.7" stroke="#FFFEFB" stroke-width="2" stroke-linecap="round" stroke-linejoin="round"/>
<path d="M368.2 381.5C365.549 381.5 363.4 383.671 363.4 386.348C363.4 387.88 364 389.07 365.2 390.133C366.046 390.883 367.071 392.128 367.686 393.137C367.981 393.621 368.398 393.621 368.715 393.137C369.361 392.148 370.355 390.883 371.2 390.133C372.4 389.07 373 387.88 373 386.348C373 383.671 370.851 381.5 368.2 381.5Z" stroke="#FFFEFB" stroke-width="2" stroke-linejoin="round"/>
<path d="M368.2 386.3H368.211" stroke="#FFFEFB" stroke-width="2" stroke-linecap="round" stroke-linejoin="round"/>
<path d="M349 376.7L350.154 373.931C351.049 371.783 351.496 370.709 352.403 370.105C353.31 369.5 354.473 369.5 356.8 369.5H365.2C367.527 369.5 368.69 369.5 369.597 370.105C370.504 370.709 370.951 371.783 371.846 373.931L373 376.7" stroke="#FFFEFB" stroke-width="2" stroke-linecap="round"/>
<path d="M361 376.7V369.5" stroke="#FFFEFB" stroke-width="2" stroke-linecap="round"/>
<path d="M358.6 381.5H361" stroke="#FFFEFB" stroke-width="2" stroke-linecap="round"/>
<path d="M429.296 203.416C429.296 202.474 430.059 201.709 431 201.709C431.941 201.709 432.704 202.474 432.704 203.416C432.704 204.359 431.941 205.123 431 205.123C430.059 205.123 429.296 204.359 429.296 203.416Z" fill="black"/>
<path fill-rule="evenodd" clip-rule="evenodd" d="M426.026 197.268L425.667 194.037C425.621 193.623 425.621 193.205 425.667 192.791L425.693 192.558C425.968 190.084 427.909 188.127 430.376 187.837C430.791 187.788 431.209 187.788 431.624 187.837C434.091 188.127 436.032 190.084 436.307 192.558L436.333 192.791C436.378 193.205 436.378 193.623 436.333 194.037L435.974 197.268L436.754 197.33C437.984 197.429 438.989 198.355 439.188 199.575C439.604 202.119 439.604 204.714 439.188 207.258C438.989 208.478 437.984 209.404 436.754 209.502L435.054 209.638C432.356 209.854 429.644 209.854 426.946 209.638L425.246 209.502C424.016 209.404 423.011 208.478 422.812 207.258C422.396 204.714 422.396 202.119 422.812 199.575C423.011 198.355 424.016 197.429 425.246 197.33L426.026 197.268ZM430.575 189.532C430.857 189.499 431.142 189.499 431.425 189.532C433.105 189.73 434.426 191.062 434.613 192.746L434.639 192.979C434.671 193.268 434.671 193.56 434.639 193.849L434.274 197.138C432.094 196.997 429.906 196.997 427.726 197.138L427.361 193.849C427.329 193.56 427.329 193.268 427.361 192.979L427.387 192.746C427.574 191.062 428.895 189.73 430.575 189.532ZM434.919 198.896C432.31 198.687 429.69 198.687 427.081 198.896L425.381 199.032C424.933 199.068 424.566 199.406 424.494 199.851C424.108 202.212 424.108 204.621 424.494 206.982C424.566 207.427 424.933 207.765 425.381 207.801L427.081 207.937C429.69 208.145 432.31 208.145 434.919 207.937L436.619 207.801C437.067 207.765 437.434 207.427 437.506 206.982C437.892 204.621 437.892 202.212 437.506 199.851C437.434 199.406 437.067 199.068 436.619 199.032L434.919 198.896Z" fill="black"/>
<path d="M429.296 252.416C429.296 251.474 430.059 250.709 431 250.709C431.941 250.709 432.704 251.474 432.704 252.416C432.704 253.359 431.941 254.123 431 254.123C430.059 254.123 429.296 253.359 429.296 252.416Z" fill="#675F5F"/>
<path fill-rule="evenodd" clip-rule="evenodd" d="M426.026 246.268L425.667 243.037C425.621 242.623 425.621 242.205 425.667 241.791L425.693 241.558C425.968 239.084 427.909 237.127 430.376 236.837C430.791 236.788 431.209 236.788 431.624 236.837C434.091 237.127 436.032 239.084 436.307 241.558L436.333 241.791C436.378 242.205 436.378 242.623 436.333 243.037L435.974 246.268L436.754 246.33C437.984 246.429 438.989 247.355 439.188 248.575C439.604 251.119 439.604 253.714 439.188 256.258C438.989 257.478 437.984 258.404 436.754 258.502L435.054 258.638C432.356 258.854 429.644 258.854 426.946 258.638L425.246 258.502C424.016 258.404 423.011 257.478 422.812 256.258C422.396 253.714 422.396 251.119 422.812 248.575C423.011 247.355 424.016 246.429 425.246 246.33L426.026 246.268ZM430.575 238.532C430.857 238.499 431.142 238.499 431.425 238.532C433.105 238.73 434.426 240.062 434.613 241.746L434.639 241.979C434.671 242.268 434.671 242.56 434.639 242.849L434.274 246.138C432.094 245.997 429.906 245.997 427.726 246.138L427.361 242.849C427.329 242.56 427.329 242.268 427.361 241.979L427.387 241.746C427.574 240.062 428.895 238.73 430.575 238.532ZM434.919 247.896C432.31 247.687 429.69 247.687 427.081 247.896L425.381 248.032C424.933 248.068 424.566 248.406 424.494 248.851C424.108 251.212 424.108 253.621 424.494 255.982C424.566 256.427 424.933 256.765 425.381 256.801L427.081 256.937C429.69 257.145 432.31 257.145 434.919 256.937L436.619 256.801C437.067 256.765 437.434 256.427 437.506 255.982C437.892 253.621 437.892 251.212 437.506 248.851C437.434 248.406 437.067 248.068 436.619 248.032L434.919 247.896Z" fill="#675F5F"/>
<path d="M430.296 293.616C430.296 292.674 431.059 291.909 432 291.909C432.941 291.909 433.704 292.674 433.704 293.616C433.704 294.559 432.941 295.323 432 295.323C431.059 295.323 430.296 294.559 430.296 293.616Z" fill="#840000"/>
<path fill-rule="evenodd" clip-rule="evenodd" d="M427.026 287.468L426.667 284.237C426.621 283.823 426.621 283.405 426.667 282.991L426.693 282.758C426.968 280.284 428.909 278.327 431.376 278.037C431.791 277.988 432.209 277.988 432.624 278.037C435.091 278.327 437.032 280.284 437.307 282.758L437.333 282.991C437.378 283.405 437.378 283.823 437.333 284.237L436.974 287.468L437.754 287.53C438.984 287.629 439.989 288.555 440.188 289.775C440.604 292.319 440.604 294.914 440.188 297.458C439.989 298.678 438.984 299.604 437.754 299.702L436.054 299.838C433.356 300.054 430.644 300.054 427.946 299.838L426.246 299.702C425.016 299.604 424.011 298.678 423.812 297.458C423.396 294.914 423.396 292.319 423.812 289.775C424.011 288.555 425.016 287.629 426.246 287.53L427.026 287.468ZM431.575 279.732C431.857 279.699 432.142 279.699 432.425 279.732C434.105 279.93 435.426 281.262 435.613 282.946L435.639 283.179C435.671 283.468 435.671 283.76 435.639 284.049L435.274 287.338C433.094 287.197 430.906 287.197 428.726 287.338L428.361 284.049C428.329 283.76 428.329 283.468 428.361 283.179L428.387 282.946C428.574 281.262 429.895 279.93 431.575 279.732ZM435.919 289.096C433.31 288.887 430.69 288.887 428.081 289.096L426.381 289.232C425.933 289.268 425.566 289.606 425.494 290.05C425.108 292.412 425.108 294.821 425.494 297.182C425.566 297.627 425.933 297.965 426.381 298.001L428.081 298.137C430.69 298.345 433.31 298.345 435.919 298.137L437.619 298.001C438.067 297.965 438.434 297.627 438.506 297.182C438.892 294.821 438.892 292.412 438.506 290.05C438.434 289.606 438.067 289.268 437.619 289.232L435.919 289.096Z" fill="#840000"/>
<path d="M429.296 342.616C429.296 341.674 430.059 340.909 431 340.909C431.941 340.909 432.704 341.674 432.704 342.616C432.704 343.559 431.941 344.323 431 344.323C430.059 344.323 429.296 343.559 429.296 342.616Z" fill="#FFEDD5"/>
<path fill-rule="evenodd" clip-rule="evenodd" d="M426.026 336.468L425.667 333.237C425.621 332.823 425.621 332.405 425.667 331.991L425.693 331.758C425.968 329.284 427.909 327.327 430.376 327.037C430.791 326.988 431.209 326.988 431.624 327.037C434.091 327.327 436.032 329.284 436.307 331.758L436.333 331.991C436.378 332.405 436.378 332.823 436.333 333.237L435.974 336.468L436.754 336.53C437.984 336.629 438.989 337.555 439.188 338.775C439.604 341.319 439.604 343.914 439.188 346.458C438.989 347.678 437.984 348.604 436.754 348.702L435.054 348.838C432.356 349.054 429.644 349.054 426.946 348.838L425.246 348.702C424.016 348.604 423.011 347.678 422.812 346.458C422.396 343.914 422.396 341.319 422.812 338.775C423.011 337.555 424.016 336.629 425.246 336.53L426.026 336.468ZM430.575 328.732C430.857 328.699 431.142 328.699 431.425 328.732C433.105 328.93 434.426 330.262 434.613 331.946L434.639 332.179C434.671 332.468 434.671 332.76 434.639 333.049L434.274 336.338C432.094 336.197 429.906 336.197 427.726 336.338L427.361 333.049C427.329 332.76 427.329 332.468 427.361 332.179L427.387 331.946C427.574 330.262 428.895 328.93 430.575 328.732ZM434.919 338.096C432.31 337.887 429.69 337.887 427.081 338.096L425.381 338.232C424.933 338.268 424.566 338.606 424.494 339.05C424.108 341.412 424.108 343.821 424.494 346.182C424.566 346.627 424.933 346.965 425.381 347.001L427.081 347.137C429.69 347.345 432.31 347.345 434.919 347.137L436.619 347.001C437.067 346.965 437.434 346.627 437.506 346.182C437.892 343.821 437.892 341.412 437.506 339.05C437.434 338.606 437.067 338.268 436.619 338.232L434.919 338.096Z" fill="#FFEDD5"/>
<path d="M428.296 386.616C428.296 385.674 429.059 384.909 430 384.909C430.941 384.909 431.704 385.674 431.704 386.616C431.704 387.559 430.941 388.323 430 388.323C429.059 388.323 428.296 387.559 428.296 386.616Z" fill="#FFFEFB"/>
<path fill-rule="evenodd" clip-rule="evenodd" d="M425.026 380.468L424.667 377.237C424.621 376.823 424.621 376.405 424.667 375.991L424.693 375.758C424.968 373.284 426.909 371.327 429.376 371.037C429.791 370.988 430.209 370.988 430.624 371.037C433.091 371.327 435.032 373.284 435.307 375.758L435.333 375.991C435.378 376.405 435.378 376.823 435.333 377.237L434.974 380.468L435.754 380.53C436.984 380.629 437.989 381.555 438.188 382.775C438.604 385.319 438.604 387.914 438.188 390.458C437.989 391.678 436.984 392.604 435.754 392.702L434.054 392.838C431.356 393.054 428.644 393.054 425.946 392.838L424.246 392.702C423.016 392.604 422.011 391.678 421.812 390.458C421.396 387.914 421.396 385.319 421.812 382.775C422.011 381.555 423.016 380.629 424.246 380.53L425.026 380.468ZM429.575 372.732C429.857 372.699 430.142 372.699 430.425 372.732C432.105 372.93 433.426 374.262 433.613 375.946L433.639 376.179C433.671 376.468 433.671 376.76 433.639 377.049L433.274 380.338C431.094 380.197 428.906 380.197 426.726 380.338L426.361 377.049C426.329 376.76 426.329 376.468 426.361 376.179L426.387 375.946C426.574 374.262 427.895 372.93 429.575 372.732ZM433.919 382.096C431.31 381.887 428.69 381.887 426.081 382.096L424.381 382.232C423.933 382.268 423.566 382.606 423.494 383.05C423.108 385.412 423.108 387.821 423.494 390.182C423.566 390.627 423.933 390.965 424.381 391.001L426.081 391.137C428.69 391.345 431.31 391.345 433.919 391.137L435.619 391.001C436.067 390.965 436.434 390.627 436.506 390.182C436.892 387.821 436.892 385.412 436.506 383.05C436.434 382.606 436.067 382.268 435.619 382.232L433.919 382.096Z" fill="#FFFEFB"/>
<path d="M299.375 201.875C299.375 203.601 297.976 205 296.25 205C294.524 205 293.125 203.601 293.125 201.875C293.125 200.149 294.524 198.75 296.25 198.75C297.976 198.75 299.375 200.149 299.375 201.875Z" stroke="#141B34" stroke-width="2"/>
<path d="M286.875 201.875C286.875 203.601 285.476 205 283.75 205C282.024 205 280.625 203.601 280.625 201.875C280.625 200.149 282.024 198.75 283.75 198.75C285.476 198.75 286.875 200.149 286.875 201.875Z" stroke="#141B34" stroke-width="2"/>
<path d="M293.125 201.875H286.875M299.375 201.875H300.329C300.604 201.875 300.741 201.875 300.857 201.861C301.709 201.754 302.379 201.084 302.486 200.232C302.5 200.116 302.5 199.979 302.5 199.704V196.25C302.5 191.763 298.862 188.125 294.375 188.125M277.5 185H290C291.768 185 292.652 185 293.201 185.549C293.75 186.098 293.75 186.982 293.75 188.75V199.375M277.5 195.938V198.75C277.5 199.918 277.5 200.502 277.751 200.938C277.916 201.223 278.152 201.459 278.438 201.624C278.873 201.875 279.457 201.875 280.625 201.875" stroke="#141B34" stroke-width="2" stroke-linecap="round" stroke-linejoin="round"/>
<path d="M277.5 188.75H285M277.5 192.5H282.5" stroke="#141B34" stroke-width="2" stroke-linecap="round" stroke-linejoin="round"/>
<rect x="243.5" y="470.3" width="315" height="326" rx="4.5" stroke="#9747FF" stroke-dasharray="10 5"/>
<path d="M424.334 499.8H405.667M417.667 498.467H412.334M407 505.133V518.467C407 519.356 407.445 519.8 408.334 519.8C409.223 519.8 413.667 519.8 421.667 519.8C422.556 519.8 423 519.356 423 518.467C423 517.578 423 513.133 423 505.133" stroke="black" stroke-width="2" stroke-linecap="square"/>
<path d="M286 563L296.9 562.092C300.311 561.807 301.076 561.063 301.454 557.661L302.25 550.5" stroke="#141B34" stroke-width="2" stroke-linecap="round"/>
<path d="M283.5 550.5H284.75M303.5 550.5H301" stroke="#141B34" stroke-width="2" stroke-linecap="round"/>
<path d="M289.144 545.983C290.485 545.184 291.655 545.506 292.358 546.019C292.646 546.23 292.79 546.335 292.875 546.335C292.96 546.335 293.104 546.23 293.392 546.019C294.095 545.506 295.265 545.184 296.606 545.983C298.366 547.033 298.764 550.495 294.705 553.416C293.932 553.972 293.546 554.25 292.875 554.25C292.204 554.25 291.818 553.972 291.045 553.416C286.986 550.495 287.384 547.033 289.144 545.983Z" stroke="#141B34" stroke-width="2" stroke-linecap="round"/>
<circle cx="283.5" cy="568" r="2.5" stroke="#141B34" stroke-width="2"/>
<circle cx="297.25" cy="568" r="2.5" stroke="#141B34" stroke-width="2"/>
<path d="M286 568L294.75 568" stroke="#141B34" stroke-width="2" stroke-linecap="round"/>
<path d="M278.5 545.5H279.708C280.888 545.5 281.918 546.281 282.204 547.394L285.923 561.846C286.111 562.576 285.95 563.35 285.485 563.952L284.29 565.5" stroke="#141B34" stroke-width="2" stroke-linecap="round"/>
<path d="M285.5 514.5L296.4 513.592C299.811 513.307 300.576 512.563 300.954 509.161L301.75 502" stroke="#141B34" stroke-width="2" stroke-linecap="round"/>
<path d="M283 502H284.25M303 502H300.5" stroke="#141B34" stroke-width="2" stroke-linecap="round"/>
<path d="M288.644 497.483C289.985 496.684 291.155 497.006 291.858 497.519C292.146 497.73 292.29 497.835 292.375 497.835C292.46 497.835 292.604 497.73 292.892 497.519C293.595 497.006 294.765 496.684 296.106 497.483C297.866 498.533 298.264 501.995 294.205 504.916C293.432 505.472 293.046 505.75 292.375 505.75C291.704 505.75 291.318 505.472 290.545 504.916C286.486 501.995 286.884 498.533 288.644 497.483Z" stroke="#141B34" stroke-width="2" stroke-linecap="round"/>
<circle cx="283" cy="519.5" r="2.5" stroke="#141B34" stroke-width="2"/>
<circle cx="296.75" cy="519.5" r="2.5" stroke="#141B34" stroke-width="2"/>
<path d="M285.5 519.5L294.25 519.5" stroke="#141B34" stroke-width="2" stroke-linecap="round"/>
<path d="M278 497H279.208C280.388 497 281.418 497.781 281.704 498.894L285.423 513.346C285.611 514.076 285.45 514.85 284.985 515.452L283.79 517" stroke="#141B34" stroke-width="2" stroke-linecap="round"/>
<path d="M349.21 612H356.091C360.342 612 360.989 609.181 361.773 605.069C361.999 603.883 362.113 603.29 361.841 602.895C361.569 602.5 361.047 602.5 360.005 602.5H359.631M347.315 602.5H349.21" stroke="#FFEDD5" stroke-width="2" stroke-linecap="round"/>
<path d="M352.053 604.5C352.518 605.006 353.758 607 354.421 607M356.79 604.5C356.324 605.006 355.085 607 354.421 607M354.421 607V599" stroke="#FFEDD5" stroke-width="2" stroke-linecap="round" stroke-linejoin="round"/>
<path d="M349.211 612L346.727 599.515C346.516 598.625 345.758 598 344.889 598H344" stroke="#FFEDD5" stroke-width="2" stroke-linecap="round"/>
<path d="M350.044 612H349.654C348.362 612 347.315 613.151 347.315 614.571C347.315 614.808 347.49 615 347.705 615H358.21" stroke="#FFEDD5" stroke-width="2" stroke-linecap="round" stroke-linejoin="round"/>
<ellipse cx="351.579" cy="616.5" rx="1.42105" ry="1.5" stroke="#FFEDD5" stroke-width="2"/>
<ellipse cx="358.21" cy="616.5" rx="1.42105" ry="1.5" stroke="#FFEDD5" stroke-width="2"/>
<path d="M350.21 662H357.091C361.342 662 361.989 659.181 362.773 655.069C362.999 653.883 363.113 653.29 362.841 652.895C362.569 652.5 362.047 652.5 361.005 652.5H360.631M348.315 652.5H350.21" stroke="#675F5F" stroke-width="2" stroke-linecap="round"/>
<path d="M353.053 654.5C353.518 655.006 354.758 657 355.421 657M357.79 654.5C357.324 655.006 356.085 657 355.421 657M355.421 657V649" stroke="#675F5F" stroke-width="2" stroke-linecap="round" stroke-linejoin="round"/>
<path d="M350.211 662L347.727 649.515C347.516 648.625 346.758 648 345.889 648H345" stroke="#675F5F" stroke-width="2" stroke-linecap="round"/>
<path d="M351.044 662H350.654C349.362 662 348.315 663.151 348.315 664.571C348.315 664.808 348.49 665 348.705 665H359.21" stroke="#675F5F" stroke-width="2" stroke-linecap="round" stroke-linejoin="round"/>
<ellipse cx="352.579" cy="666.5" rx="1.42105" ry="1.5" stroke="#675F5F" stroke-width="2"/>
<ellipse cx="359.21" cy="666.5" rx="1.42105" ry="1.5" stroke="#675F5F" stroke-width="2"/>
<path d="M350.21 712H357.091C361.342 712 361.989 709.181 362.773 705.069C362.999 703.883 363.113 703.29 362.841 702.895C362.569 702.5 362.047 702.5 361.005 702.5H360.631M348.315 702.5H350.21" stroke="#FFFEFB" stroke-width="2" stroke-linecap="round"/>
<path d="M353.053 704.5C353.518 705.006 354.758 707 355.421 707M357.79 704.5C357.324 705.006 356.085 707 355.421 707M355.421 707V699" stroke="#FFFEFB" stroke-width="2" stroke-linecap="round" stroke-linejoin="round"/>
<path d="M350.211 712L347.727 699.515C347.516 698.625 346.758 698 345.889 698H345" stroke="#FFFEFB" stroke-width="2" stroke-linecap="round"/>
<path d="M351.044 712H350.654C349.362 712 348.315 713.151 348.315 714.571C348.315 714.808 348.49 715 348.705 715H359.21" stroke="#FFFEFB" stroke-width="2" stroke-linecap="round" stroke-linejoin="round"/>
<ellipse cx="352.579" cy="716.5" rx="1.42105" ry="1.5" stroke="#FFFEFB" stroke-width="2"/>
<ellipse cx="359.21" cy="716.5" rx="1.42105" ry="1.5" stroke="#FFFEFB" stroke-width="2"/>
<path d="M349.21 562H356.091C360.342 562 360.989 559.181 361.773 555.069C361.999 553.883 362.113 553.29 361.841 552.895C361.569 552.5 361.047 552.5 360.005 552.5H359.631M347.315 552.5H349.21" stroke="#250C0E" stroke-width="2" stroke-linecap="round"/>
<path d="M352.053 554.5C352.518 555.006 353.758 557 354.421 557M356.79 554.5C356.324 555.006 355.085 557 354.421 557M354.421 557V549" stroke="#250C0E" stroke-width="2" stroke-linecap="round" stroke-linejoin="round"/>
<path d="M349.211 562L346.727 549.515C346.516 548.625 345.758 548 344.889 548H344" stroke="#250C0E" stroke-width="2" stroke-linecap="round"/>
<path d="M350.044 562H349.654C348.362 562 347.315 563.151 347.315 564.571C347.315 564.808 347.49 565 347.705 565H358.21" stroke="#250C0E" stroke-width="2" stroke-linecap="round" stroke-linejoin="round"/>
<ellipse cx="351.579" cy="566.5" rx="1.42105" ry="1.5" stroke="#250C0E" stroke-width="2"/>
<ellipse cx="358.21" cy="566.5" rx="1.42105" ry="1.5" stroke="#250C0E" stroke-width="2"/>
<path d="M348.05 513.4H356.039C360.975 513.4 361.726 510.299 362.637 505.776C362.899 504.471 363.031 503.819 362.715 503.385C362.399 502.95 361.794 502.95 360.583 502.95H360.15M345.85 502.95H348.05" stroke="#141B34" stroke-width="2" stroke-linecap="round"/>
<path d="M351.35 505.15C351.89 505.706 353.329 507.9 354.1 507.9M356.85 505.15C356.309 505.706 354.87 507.9 354.1 507.9M354.1 507.9L354.1 499.1" stroke="#141B34" stroke-width="2" stroke-linecap="round" stroke-linejoin="round"/>
<path d="M348.05 513.4L345.167 499.666C344.922 498.687 344.042 498 343.032 498H342" stroke="#141B34" stroke-width="2" stroke-linecap="round"/>
<path d="M349.018 513.4H348.565C347.065 513.4 345.85 514.666 345.85 516.229C345.85 516.489 346.052 516.7 346.302 516.7H358.5" stroke="#141B34" stroke-width="2" stroke-linecap="round" stroke-linejoin="round"/>
<circle cx="350.8" cy="518.35" r="1.65" stroke="#141B34" stroke-width="2"/>
<circle cx="358.5" cy="518.35" r="1.65" stroke="#141B34" stroke-width="2"/>
<rect x="387" y="680" width="44" height="44" rx="22" fill="#D9D9D9"/>
<path d="M418.334 694H399.667M411.667 692.667H406.334M401 699.333V712.667C401 713.556 401.445 714 402.334 714C403.223 714 407.667 714 415.667 714C416.556 714 417 713.556 417 712.667C417 711.778 417 707.333 417 699.333" stroke="black" stroke-width="2" stroke-linecap="square"/>
<rect x="243.5" y="853.3" width="335" height="86" rx="4.5" stroke="#9747FF" stroke-dasharray="10 5"/>
<path d="M399.663 899.533L400.127 896.906C400.674 893.801 400.948 892.248 402.032 891.329C403.116 890.41 404.673 890.41 407.788 890.41H414.212C417.327 890.41 418.884 890.41 419.968 891.329C421.052 892.248 421.326 893.801 421.873 896.906L422.336 899.533C423.094 903.83 423.473 905.978 422.306 907.389C421.14 908.8 418.985 908.8 414.675 908.8H407.325C403.015 908.8 400.86 908.8 399.694 907.389C398.527 905.978 398.906 903.83 399.663 899.533Z" stroke="#141B34" stroke-width="2"/>
<path d="M405.293 890.41L405.506 887.856C405.744 884.998 408.133 882.8 411 882.8C413.868 882.8 416.257 884.998 416.495 887.856L416.708 890.41" stroke="#141B34" stroke-width="2"/>
<path d="M414.805 894.215C414.64 896.007 412.986 897.385 411 897.385C409.014 897.385 407.36 896.007 407.195 894.215" stroke="#141B34" stroke-width="2" stroke-linecap="round"/>
<path d="M485.329 895.8L485.786 893.071C486.016 891.7 486.131 891.015 485.763 890.565C485.395 890.116 484.718 890.116 483.366 890.116H464.634C463.282 890.116 462.605 890.116 462.237 890.565C461.869 891.015 461.984 891.7 462.214 893.071L463.734 902.14C464.238 905.146 464.49 906.649 465.519 907.54C466.547 908.432 468.03 908.432 470.996 908.432H473.368" stroke="#141B34" stroke-width="2" stroke-linecap="round"/>
<path d="M477.158 899.59L481.579 904.011M481.579 904.011L486 908.432M481.579 904.011L477.158 908.432M481.579 904.011L486 899.59" stroke="#141B34" stroke-width="2" stroke-linecap="round"/>
<path d="M480.948 890.116C480.948 886.279 477.837 883.168 474 883.168C470.163 883.168 467.053 886.279 467.053 890.116" stroke="#141B34" stroke-width="2"/>
<path fill-rule="evenodd" clip-rule="evenodd" d="M275.671 889.451C275.691 889.451 275.712 889.451 275.732 889.451L293.725 889.451C294.32 889.451 294.863 889.451 295.297 889.515C295.774 889.584 296.282 889.751 296.661 890.214C297.036 890.671 297.106 891.201 297.092 891.683C297.079 892.128 296.988 892.673 296.886 893.28L296.54 895.345C296.457 895.839 295.989 896.173 295.495 896.09C295.001 896.007 294.668 895.539 294.751 895.045L295.087 893.038C295.202 892.355 295.27 891.936 295.279 891.631C295.283 891.489 295.272 891.416 295.263 891.381C295.261 891.373 295.259 891.368 295.258 891.365C295.257 891.364 295.255 891.364 295.253 891.363C295.228 891.351 295.166 891.329 295.034 891.309C294.747 891.267 294.34 891.265 293.664 891.265H275.732C275.056 891.265 274.649 891.267 274.362 891.309C274.23 891.329 274.168 891.351 274.143 891.363C274.141 891.364 274.139 891.364 274.138 891.365C274.137 891.368 274.135 891.373 274.133 891.381C274.125 891.416 274.113 891.489 274.118 891.631C274.126 891.936 274.194 892.355 274.309 893.038L275.764 901.72C276.009 903.181 276.181 904.197 276.406 904.958C276.624 905.696 276.862 906.086 277.172 906.354C277.48 906.621 277.885 906.793 278.62 906.887C279.382 906.984 280.379 906.986 281.822 906.986H284.698C285.199 906.986 285.605 907.392 285.605 907.893C285.605 908.394 285.199 908.8 284.698 908.8H281.761C280.393 908.8 279.28 908.8 278.39 908.686C277.459 908.567 276.662 908.312 275.985 907.725C275.31 907.141 274.935 906.384 274.666 905.471C274.407 904.592 274.218 903.468 273.985 902.078L272.52 893.338C272.517 893.318 272.513 893.299 272.51 893.28C272.409 892.673 272.317 892.128 272.304 891.683C272.291 891.201 272.36 890.671 272.735 890.214C273.114 889.751 273.622 889.584 274.1 889.515C274.534 889.451 275.076 889.451 275.671 889.451Z" fill="#141B34"/>
<path fill-rule="evenodd" clip-rule="evenodd" d="M291.954 897.312C292.455 897.312 292.861 897.718 292.861 898.219V902.149H296.791C297.292 902.149 297.698 902.555 297.698 903.056C297.698 903.557 297.292 903.963 296.791 903.963H292.861V907.893C292.861 908.394 292.455 908.8 291.954 908.8C291.453 908.8 291.047 908.394 291.047 907.893V903.963H287.117C286.616 903.963 286.21 903.557 286.21 903.056C286.21 902.555 286.616 902.149 287.117 902.149H291.047V898.219C291.047 897.718 291.453 897.312 291.954 897.312Z" fill="#141B34"/>
<path fill-rule="evenodd" clip-rule="evenodd" d="M284.698 884.614C281.525 884.614 278.954 887.186 278.954 890.358H277.14C277.14 886.184 280.524 882.8 284.698 882.8C288.872 882.8 292.256 886.184 292.256 890.358H290.442C290.442 887.186 287.87 884.614 284.698 884.614Z" fill="#141B34"/>
<path d="M347.35 908.8H344.909C341.857 908.8 340.33 908.8 339.272 907.883C338.213 906.966 337.954 905.419 337.435 902.325L335.871 892.992C335.634 891.581 335.516 890.875 335.894 890.413C336.273 889.95 336.969 889.95 338.362 889.95H357.639C359.031 889.95 359.728 889.95 360.106 890.413C360.485 890.875 360.367 891.581 360.13 892.992L359.768 895.15" stroke="#141B34" stroke-width="2" stroke-linecap="round"/>
<path d="M350.135 898.974C351.704 898.024 353.073 898.407 353.895 899.017C354.233 899.267 354.401 899.392 354.5 899.392C354.6 899.392 354.768 899.267 355.105 899.017C355.928 898.407 357.297 898.024 358.866 898.974C360.925 900.222 361.391 904.337 356.642 907.808C355.737 908.469 355.285 908.8 354.5 908.8C353.716 908.8 353.264 908.469 352.359 907.808C347.61 904.337 348.076 900.222 350.135 898.974Z" stroke="#141B34" stroke-width="2" stroke-linecap="round"/>
<path d="M355.151 889.95C355.151 886.001 351.949 882.8 348.001 882.8C344.052 882.8 340.851 886.001 340.851 889.95" stroke="#141B34" stroke-width="2"/>
<path d="M535.737 908.432H533.996C531.03 908.432 529.547 908.432 528.519 907.54C527.49 906.649 527.238 905.146 526.734 902.14L525.214 893.071C524.984 891.7 524.869 891.015 525.237 890.565C525.605 890.116 526.282 890.116 527.634 890.116H546.366C547.718 890.116 548.395 890.116 548.763 890.565C549.131 891.015 549.016 891.7 548.786 893.071L548.435 895.168" stroke="#141B34" stroke-width="2" stroke-linecap="round"/>
<path d="M543.314 898.326C541.715 898.326 540.677 899.346 539.451 899.718C538.952 899.869 538.703 899.945 538.602 900.052C538.501 900.158 538.471 900.314 538.412 900.625C537.779 903.958 539.162 907.039 542.459 908.238C542.813 908.367 542.991 908.432 543.316 908.432C543.642 908.432 543.819 908.367 544.173 908.238C547.47 907.039 548.851 903.958 548.218 900.625C548.159 900.314 548.13 900.158 548.029 900.052C547.928 899.945 547.679 899.869 547.18 899.718C545.953 899.347 544.914 898.326 543.314 898.326Z" stroke="#141B34" stroke-width="2" stroke-linecap="round" stroke-linejoin="round"/>
<path d="M543.947 890.116C543.947 886.279 540.837 883.168 537 883.168C533.163 883.168 530.053 886.279 530.053 890.116" stroke="#141B34" stroke-width="2"/>
<rect x="243.5" y="996.3" width="1022" height="498" rx="4.5" stroke="#9747FF" stroke-dasharray="10 5"/>
<path d="M661.386 1091.88L661.97 1090.5L661.386 1091.88ZM644.5 1047.75C644.5 1046.92 643.828 1046.25 643 1046.25C642.172 1046.25 641.5 1046.92 641.5 1047.75H644.5ZM672.85 1061.47C672.85 1060.64 672.178 1059.97 671.35 1059.97C670.522 1059.97 669.85 1060.64 669.85 1061.47L672.85 1061.47ZM698.2 1061.92C698.2 1062.75 698.872 1063.42 699.7 1063.42C700.528 1063.42 701.2 1062.75 701.2 1061.92H698.2ZM701.2 1047.75C701.2 1046.92 700.528 1046.25 699.7 1046.25C698.872 1046.25 698.2 1046.92 698.2 1047.75H701.2ZM674.961 1095.89C675.75 1095.63 676.182 1094.79 675.927 1094C675.673 1093.21 674.827 1092.78 674.039 1093.03L674.961 1095.89ZM692.339 1081.34C691.754 1081.93 691.754 1082.88 692.339 1083.46C692.925 1084.05 693.875 1084.05 694.461 1083.46L692.339 1081.34ZM697.313 1080.61C697.899 1080.02 697.899 1079.07 697.313 1078.49C696.728 1077.9 695.778 1077.9 695.192 1078.49L697.313 1080.61ZM650.575 1051.78L651.228 1050.42H651.228L650.575 1051.78ZM659.777 1056.23L659.123 1057.58L659.777 1056.23ZM682.923 1056.23L682.27 1054.88L682.923 1056.23ZM692.125 1051.78L691.472 1050.42L692.125 1051.78ZM650.575 1040.57L651.228 1041.93L650.575 1040.57ZM659.777 1036.12L659.123 1034.77L659.777 1036.12ZM682.923 1036.12L682.27 1037.47L682.923 1036.12ZM692.125 1040.57L691.472 1041.93L692.125 1040.57ZM653.121 1062.16C652.38 1061.79 651.479 1062.09 651.108 1062.83C650.738 1063.57 651.038 1064.47 651.779 1064.84L653.121 1062.16ZM658.079 1067.99C658.82 1068.36 659.721 1068.06 660.092 1067.32C660.462 1066.58 660.162 1065.68 659.421 1065.31L658.079 1067.99ZM687.771 1039.64C688.512 1039.27 688.812 1038.37 688.442 1037.63C688.071 1036.89 687.17 1036.59 686.429 1036.96L687.771 1039.64ZM654.929 1052.71C654.188 1053.08 653.888 1053.98 654.258 1054.72C654.629 1055.46 655.53 1055.76 656.271 1055.39L654.929 1052.71ZM660.803 1093.26C665.61 1095.29 668.398 1096.5 671.35 1096.5V1093.5C669.148 1093.5 667.011 1092.63 661.97 1090.5L660.803 1093.26ZM661.97 1090.5C655.795 1087.89 651.319 1085.99 648.368 1084.22C645.37 1082.43 644.5 1081.08 644.5 1079.76H641.5C641.5 1082.79 643.694 1084.92 646.825 1086.8C650.003 1088.7 654.72 1090.69 660.803 1093.26L661.97 1090.5ZM644.5 1079.76V1047.75H641.5V1079.76H644.5ZM672.85 1095L672.85 1061.47L669.85 1061.47L669.85 1095H672.85ZM701.2 1061.92V1047.75H698.2V1061.92H701.2ZM674.039 1093.03C673.039 1093.36 672.233 1093.5 671.35 1093.5V1096.5C672.612 1096.5 673.733 1096.28 674.961 1095.89L674.039 1093.03ZM707.5 1082.4C707.5 1074.61 701.187 1068.3 693.4 1068.3V1071.3C699.53 1071.3 704.5 1076.27 704.5 1082.4H707.5ZM693.4 1068.3C685.613 1068.3 679.3 1074.61 679.3 1082.4H682.3C682.3 1076.27 687.27 1071.3 693.4 1071.3V1068.3ZM679.3 1082.4C679.3 1090.19 685.613 1096.5 693.4 1096.5V1093.5C687.27 1093.5 682.3 1088.53 682.3 1082.4H679.3ZM693.4 1096.5C701.187 1096.5 707.5 1090.19 707.5 1082.4H704.5C704.5 1088.53 699.53 1093.5 693.4 1093.5V1096.5ZM694.461 1083.46L697.313 1080.61L695.192 1078.49L692.339 1081.34L694.461 1083.46ZM649.921 1053.13L659.123 1057.58L660.43 1054.88L651.228 1050.42L649.921 1053.13ZM683.577 1057.58L692.779 1053.13L691.472 1050.42L682.27 1054.88L683.577 1057.58ZM651.228 1041.93L660.43 1037.47L659.123 1034.77L649.921 1039.22L651.228 1041.93ZM682.27 1037.47L691.472 1041.93L692.779 1039.22L683.577 1034.77L682.27 1037.47ZM660.43 1037.47C666.239 1034.66 668.72 1033.5 671.35 1033.5V1030.5C667.871 1030.5 664.673 1032.09 659.123 1034.77L660.43 1037.47ZM683.577 1034.77C678.027 1032.09 674.829 1030.5 671.35 1030.5V1033.5C673.98 1033.5 676.461 1034.66 682.27 1037.47L683.577 1034.77ZM692.779 1053.13C695.258 1051.93 697.272 1050.96 698.646 1050.03C700 1049.11 701.2 1047.93 701.2 1046.17H698.2C698.2 1046.35 698.138 1046.75 696.967 1047.54C695.816 1048.32 694.042 1049.18 691.472 1050.42L692.779 1053.13ZM691.472 1041.93C694.042 1043.17 695.816 1044.03 696.967 1044.81C698.138 1045.6 698.2 1046 698.2 1046.17H701.2C701.2 1044.42 700 1043.24 698.646 1042.32C697.272 1041.39 695.258 1040.42 692.779 1039.22L691.472 1041.93ZM659.123 1057.58C664.673 1060.26 667.871 1061.85 671.35 1061.85V1058.85C668.72 1058.85 666.239 1057.69 660.43 1054.88L659.123 1057.58ZM682.27 1054.88C676.461 1057.69 673.98 1058.85 671.35 1058.85V1061.85C674.829 1061.85 678.027 1060.26 683.577 1057.58L682.27 1054.88ZM651.228 1050.42C648.658 1049.18 646.884 1048.32 645.733 1047.54C644.562 1046.75 644.5 1046.35 644.5 1046.17H641.5C641.5 1047.93 642.7 1049.11 644.054 1050.03C645.428 1050.96 647.442 1051.93 649.921 1053.13L651.228 1050.42ZM649.921 1039.22C647.442 1040.42 645.428 1041.39 644.054 1042.32C642.7 1043.24 641.5 1044.42 641.5 1046.17H644.5C644.5 1046 644.562 1045.6 645.733 1044.81C646.884 1044.03 648.658 1043.17 651.228 1041.93L649.921 1039.22ZM651.779 1064.84L658.079 1067.99L659.421 1065.31L653.121 1062.16L651.779 1064.84ZM686.429 1036.96L654.929 1052.71L656.271 1055.39L687.771 1039.64L686.429 1036.96Z" fill="#141B34"/>
<path d="M661.386 1203.88L661.97 1202.5L661.386 1203.88ZM644.5 1159.75C644.5 1158.92 643.828 1158.25 643 1158.25C642.172 1158.25 641.5 1158.92 641.5 1159.75H644.5ZM672.85 1173.47C672.85 1172.64 672.178 1171.97 671.35 1171.97C670.522 1171.97 669.85 1172.64 669.85 1173.47L672.85 1173.47ZM698.2 1173.92C698.2 1174.75 698.872 1175.42 699.7 1175.42C700.528 1175.42 701.2 1174.75 701.2 1173.92H698.2ZM701.2 1159.75C701.2 1158.92 700.528 1158.25 699.7 1158.25C698.872 1158.25 698.2 1158.92 698.2 1159.75H701.2ZM674.961 1207.89C675.75 1207.63 676.182 1206.79 675.927 1206C675.673 1205.21 674.827 1204.78 674.039 1205.03L674.961 1207.89ZM692.339 1193.34C691.754 1193.93 691.754 1194.88 692.339 1195.46C692.925 1196.05 693.875 1196.05 694.461 1195.46L692.339 1193.34ZM697.313 1192.61C697.899 1192.02 697.899 1191.07 697.313 1190.49C696.728 1189.9 695.778 1189.9 695.192 1190.49L697.313 1192.61ZM650.575 1163.78L651.228 1162.42H651.228L650.575 1163.78ZM659.777 1168.23L659.123 1169.58L659.777 1168.23ZM682.923 1168.23L682.27 1166.88L682.923 1168.23ZM692.125 1163.78L691.472 1162.42L692.125 1163.78ZM650.575 1152.57L651.228 1153.93L650.575 1152.57ZM659.777 1148.12L659.123 1146.77L659.777 1148.12ZM682.923 1148.12L682.27 1149.47L682.923 1148.12ZM692.125 1152.57L691.472 1153.93L692.125 1152.57ZM653.121 1174.16C652.38 1173.79 651.479 1174.09 651.108 1174.83C650.738 1175.57 651.038 1176.47 651.779 1176.84L653.121 1174.16ZM658.079 1179.99C658.82 1180.36 659.721 1180.06 660.092 1179.32C660.462 1178.58 660.162 1177.68 659.421 1177.31L658.079 1179.99ZM687.771 1151.64C688.512 1151.27 688.812 1150.37 688.442 1149.63C688.071 1148.89 687.17 1148.59 686.429 1148.96L687.771 1151.64ZM654.929 1164.71C654.188 1165.08 653.888 1165.98 654.258 1166.72C654.629 1167.46 655.53 1167.76 656.271 1167.39L654.929 1164.71ZM660.803 1205.26C665.61 1207.29 668.398 1208.5 671.35 1208.5V1205.5C669.148 1205.5 667.011 1204.63 661.97 1202.5L660.803 1205.26ZM661.97 1202.5C655.795 1199.89 651.319 1197.99 648.368 1196.22C645.37 1194.43 644.5 1193.08 644.5 1191.76H641.5C641.5 1194.79 643.694 1196.92 646.825 1198.8C650.003 1200.7 654.72 1202.69 660.803 1205.26L661.97 1202.5ZM644.5 1191.76V1159.75H641.5V1191.76H644.5ZM672.85 1207L672.85 1173.47L669.85 1173.47L669.85 1207H672.85ZM701.2 1173.92V1159.75H698.2V1173.92H701.2ZM674.039 1205.03C673.039 1205.36 672.233 1205.5 671.35 1205.5V1208.5C672.612 1208.5 673.733 1208.28 674.961 1207.89L674.039 1205.03ZM707.5 1194.4C707.5 1186.61 701.187 1180.3 693.4 1180.3V1183.3C699.53 1183.3 704.5 1188.27 704.5 1194.4H707.5ZM693.4 1180.3C685.613 1180.3 679.3 1186.61 679.3 1194.4H682.3C682.3 1188.27 687.27 1183.3 693.4 1183.3V1180.3ZM679.3 1194.4C679.3 1202.19 685.613 1208.5 693.4 1208.5V1205.5C687.27 1205.5 682.3 1200.53 682.3 1194.4H679.3ZM693.4 1208.5C701.187 1208.5 707.5 1202.19 707.5 1194.4H704.5C704.5 1200.53 699.53 1205.5 693.4 1205.5V1208.5ZM694.461 1195.46L697.313 1192.61L695.192 1190.49L692.339 1193.34L694.461 1195.46ZM649.921 1165.13L659.123 1169.58L660.43 1166.88L651.228 1162.42L649.921 1165.13ZM683.577 1169.58L692.779 1165.13L691.472 1162.42L682.27 1166.88L683.577 1169.58ZM651.228 1153.93L660.43 1149.47L659.123 1146.77L649.921 1151.22L651.228 1153.93ZM682.27 1149.47L691.472 1153.93L692.779 1151.22L683.577 1146.77L682.27 1149.47ZM660.43 1149.47C666.239 1146.66 668.72 1145.5 671.35 1145.5V1142.5C667.871 1142.5 664.673 1144.09 659.123 1146.77L660.43 1149.47ZM683.577 1146.77C678.027 1144.09 674.829 1142.5 671.35 1142.5V1145.5C673.98 1145.5 676.461 1146.66 682.27 1149.47L683.577 1146.77ZM692.779 1165.13C695.258 1163.93 697.272 1162.96 698.646 1162.03C700 1161.11 701.2 1159.93 701.2 1158.17H698.2C698.2 1158.35 698.138 1158.75 696.967 1159.54C695.816 1160.32 694.042 1161.18 691.472 1162.42L692.779 1165.13ZM691.472 1153.93C694.042 1155.17 695.816 1156.03 696.967 1156.81C698.138 1157.6 698.2 1158 698.2 1158.17H701.2C701.2 1156.42 700 1155.24 698.646 1154.32C697.272 1153.39 695.258 1152.42 692.779 1151.22L691.472 1153.93ZM659.123 1169.58C664.673 1172.26 667.871 1173.85 671.35 1173.85V1170.85C668.72 1170.85 666.239 1169.69 660.43 1166.88L659.123 1169.58ZM682.27 1166.88C676.461 1169.69 673.98 1170.85 671.35 1170.85V1173.85C674.829 1173.85 678.027 1172.26 683.577 1169.58L682.27 1166.88ZM651.228 1162.42C648.658 1161.18 646.884 1160.32 645.733 1159.54C644.562 1158.75 644.5 1158.35 644.5 1158.17H641.5C641.5 1159.93 642.7 1161.11 644.054 1162.03C645.428 1162.96 647.442 1163.93 649.921 1165.13L651.228 1162.42ZM649.921 1151.22C647.442 1152.42 645.428 1153.39 644.054 1154.32C642.7 1155.24 641.5 1156.42 641.5 1158.17H644.5C644.5 1158 644.562 1157.6 645.733 1156.81C646.884 1156.03 648.658 1155.17 651.228 1153.93L649.921 1151.22ZM651.779 1176.84L658.079 1179.99L659.421 1177.31L653.121 1174.16L651.779 1176.84ZM686.429 1148.96L654.929 1164.71L656.271 1167.39L687.771 1151.64L686.429 1148.96Z" fill="#FFEDD5"/>
<path fill-rule="evenodd" clip-rule="evenodd" d="M417 1031.23C411.753 1031.23 406.721 1033.33 403.01 1037.07C399.3 1040.8 397.216 1045.87 397.216 1051.15C397.216 1053.8 398.427 1057.55 400.378 1061.8C402.31 1066.01 404.896 1070.57 407.495 1074.79C410.093 1079.01 412.692 1082.87 414.643 1085.67C415.618 1087.07 416.43 1088.21 416.998 1089L417 1089L417.002 1089C417.57 1088.21 418.382 1087.07 419.357 1085.67C421.308 1082.87 423.907 1079.01 426.505 1074.79C429.104 1070.57 431.69 1066.01 433.622 1061.8C435.573 1057.55 436.784 1053.8 436.784 1051.15C436.784 1045.87 434.7 1040.8 430.99 1037.07C427.279 1033.33 422.247 1031.23 417 1031.23ZM417 1090.88C416.113 1091.55 416.113 1091.55 416.113 1091.55L416.097 1091.53L416.051 1091.47C416.011 1091.41 415.951 1091.33 415.874 1091.23C415.72 1091.02 415.494 1090.71 415.206 1090.31C414.632 1089.52 413.812 1088.37 412.828 1086.95C410.862 1084.13 408.238 1080.23 405.612 1075.97C402.989 1071.71 400.352 1067.07 398.366 1062.74C396.401 1058.45 395 1054.32 395 1051.15C395 1045.28 397.318 1039.64 401.444 1035.49C405.569 1031.33 411.165 1029 417 1029C422.835 1029 428.431 1031.33 432.556 1035.49C436.682 1039.64 439 1045.28 439 1051.15C439 1054.32 437.599 1058.45 435.634 1062.74C433.648 1067.07 431.011 1071.71 428.388 1075.97C425.762 1080.23 423.138 1084.13 421.172 1086.95C420.188 1088.37 419.368 1089.52 418.794 1090.31C418.506 1090.71 418.28 1091.02 418.126 1091.23C418.049 1091.33 417.989 1091.41 417.949 1091.47L417.903 1091.53L417.888 1091.55C417.888 1091.55 417.887 1091.55 417 1090.88ZM417 1090.88L417.888 1091.55C417.679 1091.83 417.349 1092 417 1092C416.651 1092 416.322 1091.83 416.113 1091.55L417 1090.88ZM417 1045.25C413.766 1045.25 411.144 1047.89 411.144 1051.15C411.144 1054.41 413.766 1057.05 417 1057.05C420.234 1057.05 422.856 1054.41 422.856 1051.15C422.856 1047.89 420.234 1045.25 417 1045.25ZM408.928 1051.15C408.928 1046.66 412.542 1043.02 417 1043.02C421.458 1043.02 425.072 1046.66 425.072 1051.15C425.072 1055.64 421.458 1059.28 417 1059.28C412.542 1059.28 408.928 1055.64 408.928 1051.15Z" fill="#000001"/>
<path d="M416.113 1091.55C416.113 1091.55 416.113 1091.55 417 1090.88M416.113 1091.55C416.322 1091.83 416.651 1092 417 1092C417.349 1092 417.679 1091.83 417.888 1091.55M416.113 1091.55L417 1090.88M416.113 1091.55L416.097 1091.53L416.051 1091.47C416.011 1091.41 415.951 1091.33 415.874 1091.23C415.72 1091.02 415.494 1090.71 415.206 1090.31C414.632 1089.52 413.812 1088.37 412.828 1086.95C410.862 1084.13 408.238 1080.23 405.612 1075.97C402.989 1071.71 400.352 1067.07 398.366 1062.74C396.401 1058.45 395 1054.32 395 1051.15C395 1045.28 397.318 1039.64 401.444 1035.49C405.569 1031.33 411.165 1029 417 1029C422.835 1029 428.431 1031.33 432.556 1035.49C436.682 1039.64 439 1045.28 439 1051.15C439 1054.32 437.599 1058.45 435.634 1062.74C433.648 1067.07 431.011 1071.71 428.388 1075.97C425.762 1080.23 423.138 1084.13 421.172 1086.95C420.188 1088.37 419.368 1089.52 418.794 1090.31C418.506 1090.71 418.28 1091.02 418.126 1091.23C418.049 1091.33 417.989 1091.41 417.949 1091.47L417.903 1091.53L417.888 1091.55M417 1090.88C417.887 1091.55 417.888 1091.55 417.888 1091.55M417 1090.88L417.888 1091.55M403.01 1037.07C406.721 1033.33 411.753 1031.23 417 1031.23C422.247 1031.23 427.279 1033.33 430.99 1037.07C434.7 1040.8 436.784 1045.87 436.784 1051.15C436.784 1053.8 435.573 1057.55 433.622 1061.8C431.69 1066.01 429.104 1070.57 426.505 1074.79C423.907 1079.01 421.308 1082.87 419.357 1085.67C418.382 1087.07 417.57 1088.21 417.002 1089L417 1089L416.998 1089C416.43 1088.21 415.618 1087.07 414.643 1085.67C412.692 1082.87 410.093 1079.01 407.495 1074.79C404.896 1070.57 402.31 1066.01 400.378 1061.8C398.427 1057.55 397.216 1053.8 397.216 1051.15C397.216 1045.87 399.3 1040.8 403.01 1037.07ZM411.144 1051.15C411.144 1047.89 413.766 1045.25 417 1045.25C420.234 1045.25 422.856 1047.89 422.856 1051.15C422.856 1054.41 420.234 1057.05 417 1057.05C413.766 1057.05 411.144 1054.41 411.144 1051.15ZM417 1043.02C412.542 1043.02 408.928 1046.66 408.928 1051.15C408.928 1055.64 412.542 1059.28 417 1059.28C421.458 1059.28 425.072 1055.64 425.072 1051.15C425.072 1046.66 421.458 1043.02 417 1043.02Z" stroke="black" stroke-linecap="round" stroke-linejoin="round"/>
<path fill-rule="evenodd" clip-rule="evenodd" d="M417 1146.23C411.753 1146.23 406.721 1148.33 403.01 1152.07C399.3 1155.8 397.216 1160.87 397.216 1166.15C397.216 1168.8 398.427 1172.55 400.378 1176.8C402.31 1181.01 404.896 1185.57 407.495 1189.79C410.093 1194.01 412.692 1197.87 414.643 1200.67C415.618 1202.07 416.43 1203.21 416.998 1204L417 1204L417.002 1204C417.57 1203.21 418.382 1202.07 419.357 1200.67C421.308 1197.87 423.907 1194.01 426.505 1189.79C429.104 1185.57 431.69 1181.01 433.622 1176.8C435.573 1172.55 436.784 1168.8 436.784 1166.15C436.784 1160.87 434.7 1155.8 430.99 1152.07C427.279 1148.33 422.247 1146.23 417 1146.23ZM417 1205.88C416.113 1206.55 416.113 1206.55 416.113 1206.55L416.097 1206.53L416.051 1206.47C416.011 1206.41 415.951 1206.33 415.874 1206.23C415.72 1206.02 415.494 1205.71 415.206 1205.31C414.632 1204.52 413.812 1203.37 412.828 1201.95C410.862 1199.13 408.238 1195.23 405.612 1190.97C402.989 1186.71 400.352 1182.07 398.366 1177.74C396.401 1173.45 395 1169.32 395 1166.15C395 1160.28 397.318 1154.64 401.444 1150.49C405.569 1146.33 411.165 1144 417 1144C422.835 1144 428.431 1146.33 432.556 1150.49C436.682 1154.64 439 1160.28 439 1166.15C439 1169.32 437.599 1173.45 435.634 1177.74C433.648 1182.07 431.011 1186.71 428.388 1190.97C425.762 1195.23 423.138 1199.13 421.172 1201.95C420.188 1203.37 419.368 1204.52 418.794 1205.31C418.506 1205.71 418.28 1206.02 418.126 1206.23C418.049 1206.33 417.989 1206.41 417.949 1206.47L417.903 1206.53L417.888 1206.55C417.888 1206.55 417.887 1206.55 417 1205.88ZM417 1205.88L417.888 1206.55C417.679 1206.83 417.349 1207 417 1207C416.651 1207 416.322 1206.83 416.113 1206.55L417 1205.88ZM417 1160.25C413.766 1160.25 411.144 1162.89 411.144 1166.15C411.144 1169.41 413.766 1172.05 417 1172.05C420.234 1172.05 422.856 1169.41 422.856 1166.15C422.856 1162.89 420.234 1160.25 417 1160.25ZM408.928 1166.15C408.928 1161.66 412.542 1158.02 417 1158.02C421.458 1158.02 425.072 1161.66 425.072 1166.15C425.072 1170.64 421.458 1174.28 417 1174.28C412.542 1174.28 408.928 1170.64 408.928 1166.15Z" fill="#FFEDD5"/>
<path d="M416.113 1206.55C416.113 1206.55 416.113 1206.55 417 1205.88M416.113 1206.55C416.322 1206.83 416.651 1207 417 1207C417.349 1207 417.679 1206.83 417.888 1206.55M416.113 1206.55L417 1205.88M416.113 1206.55L416.097 1206.53L416.051 1206.47C416.011 1206.41 415.951 1206.33 415.874 1206.23C415.72 1206.02 415.494 1205.71 415.206 1205.31C414.632 1204.52 413.812 1203.37 412.828 1201.95C410.862 1199.13 408.238 1195.23 405.612 1190.97C402.989 1186.71 400.352 1182.07 398.366 1177.74C396.401 1173.45 395 1169.32 395 1166.15C395 1160.28 397.318 1154.64 401.444 1150.49C405.569 1146.33 411.165 1144 417 1144C422.835 1144 428.431 1146.33 432.556 1150.49C436.682 1154.64 439 1160.28 439 1166.15C439 1169.32 437.599 1173.45 435.634 1177.74C433.648 1182.07 431.011 1186.71 428.388 1190.97C425.762 1195.23 423.138 1199.13 421.172 1201.95C420.188 1203.37 419.368 1204.52 418.794 1205.31C418.506 1205.71 418.28 1206.02 418.126 1206.23C418.049 1206.33 417.989 1206.41 417.949 1206.47L417.903 1206.53L417.888 1206.55M417 1205.88C417.887 1206.55 417.888 1206.55 417.888 1206.55M417 1205.88L417.888 1206.55M403.01 1152.07C406.721 1148.33 411.753 1146.23 417 1146.23C422.247 1146.23 427.279 1148.33 430.99 1152.07C434.7 1155.8 436.784 1160.87 436.784 1166.15C436.784 1168.8 435.573 1172.55 433.622 1176.8C431.69 1181.01 429.104 1185.57 426.505 1189.79C423.907 1194.01 421.308 1197.87 419.357 1200.67C418.382 1202.07 417.57 1203.21 417.002 1204L417 1204L416.998 1204C416.43 1203.21 415.618 1202.07 414.643 1200.67C412.692 1197.87 410.093 1194.01 407.495 1189.79C404.896 1185.57 402.31 1181.01 400.378 1176.8C398.427 1172.55 397.216 1168.8 397.216 1166.15C397.216 1160.87 399.3 1155.8 403.01 1152.07ZM411.144 1166.15C411.144 1162.89 413.766 1160.25 417 1160.25C420.234 1160.25 422.856 1162.89 422.856 1166.15C422.856 1169.41 420.234 1172.05 417 1172.05C413.766 1172.05 411.144 1169.41 411.144 1166.15ZM417 1158.02C412.542 1158.02 408.928 1161.66 408.928 1166.15C408.928 1170.64 412.542 1174.28 417 1174.28C421.458 1174.28 425.072 1170.64 425.072 1166.15C425.072 1161.66 421.458 1158.02 417 1158.02Z" stroke="#FFEDD5" stroke-linecap="round" stroke-linejoin="round"/>
<path d="M318.9 1052.95V1045.11C318.9 1040.25 316.909 1035.6 313.364 1032.16C309.82 1028.73 305.013 1026.8 300 1026.8C294.987 1026.8 290.18 1028.73 286.636 1032.16C283.091 1035.6 281.1 1040.25 281.1 1045.11V1052.95M278.4 1052.95H321.6C324.582 1052.95 327 1055.3 327 1058.18V1089.57C327 1092.46 324.582 1094.8 321.6 1094.8H278.4C275.418 1094.8 273 1092.46 273 1089.57V1058.18C273 1055.3 275.418 1052.95 278.4 1052.95ZM302.7 1073.88C302.7 1075.32 301.491 1076.49 300 1076.49C298.509 1076.49 297.3 1075.32 297.3 1073.88C297.3 1072.43 298.509 1071.26 300 1071.26C301.491 1071.26 302.7 1072.43 302.7 1073.88Z" stroke="#000001" stroke-width="3" stroke-linecap="round" stroke-linejoin="round"/>
<path d="M577.461 1058.03L578.755 1057.27V1057.27L577.461 1058.03ZM571.346 1047.59L572.64 1046.83L571.346 1047.59ZM507 1031.5C506.172 1031.5 505.5 1032.17 505.5 1033C505.5 1033.83 506.172 1034.5 507 1034.5V1031.5ZM552.3 1075.41C552.3 1076.23 552.972 1076.91 553.8 1076.91C554.628 1076.91 555.3 1076.23 555.3 1075.41H552.3ZM555.6 1040.72C554.772 1040.72 554.1 1041.39 554.1 1042.22C554.1 1043.05 554.772 1043.72 555.6 1043.72V1040.72ZM508.5 1066.19C508.5 1065.36 507.828 1064.69 507 1064.69C506.172 1064.69 505.5 1065.36 505.5 1066.19H508.5ZM567.803 1042.94L567.051 1044.23L567.051 1044.23L567.803 1042.94ZM578.277 1080.02L576.97 1079.28L578.277 1080.02ZM576.3 1082.04L575.536 1080.75L575.536 1080.75L576.3 1082.04ZM578.804 1060.71L577.356 1061.1V1061.1L578.804 1060.71ZM509.7 1082.04L510.464 1080.75L510.464 1080.75L509.7 1082.04ZM507.723 1080.02L509.03 1079.28L509.03 1079.28L507.723 1080.02ZM507 1042.56C506.172 1042.56 505.5 1043.23 505.5 1044.06C505.5 1044.89 506.172 1045.56 507 1045.56V1042.56ZM528.6 1045.56C529.428 1045.56 530.1 1044.89 530.1 1044.06C530.1 1043.23 529.428 1042.56 528.6 1042.56V1045.56ZM507 1053.62C506.172 1053.62 505.5 1054.3 505.5 1055.12C505.5 1055.95 506.172 1056.62 507 1056.62V1053.62ZM521.4 1056.62C522.228 1056.62 522.9 1055.95 522.9 1055.12C522.9 1054.3 522.228 1053.62 521.4 1053.62V1056.62ZM568.5 1082.78C568.5 1087.08 565.108 1090.5 561 1090.5V1093.5C566.833 1093.5 571.5 1088.67 571.5 1082.78H568.5ZM561 1090.5C556.892 1090.5 553.5 1087.08 553.5 1082.78H550.5C550.5 1088.67 555.167 1093.5 561 1093.5V1090.5ZM553.5 1082.78C553.5 1078.48 556.892 1075.06 561 1075.06V1072.06C555.167 1072.06 550.5 1076.9 550.5 1082.78H553.5ZM561 1075.06C565.108 1075.06 568.5 1078.48 568.5 1082.78H571.5C571.5 1076.9 566.833 1072.06 561 1072.06V1075.06ZM532.5 1082.78C532.5 1087.08 529.108 1090.5 525 1090.5V1093.5C530.833 1093.5 535.5 1088.67 535.5 1082.78H532.5ZM525 1090.5C520.892 1090.5 517.5 1087.08 517.5 1082.78H514.5C514.5 1088.67 519.167 1093.5 525 1093.5V1090.5ZM517.5 1082.78C517.5 1078.48 520.892 1075.06 525 1075.06V1072.06C519.167 1072.06 514.5 1076.9 514.5 1082.78H517.5ZM525 1075.06C529.108 1075.06 532.5 1078.48 532.5 1082.78H535.5C535.5 1076.9 530.833 1072.06 525 1072.06V1075.06ZM577.5 1063.72V1073.56H580.5V1063.72H577.5ZM552 1081.28L534 1081.28V1084.28L552 1084.28V1081.28ZM578.755 1057.27L572.64 1046.83L570.052 1048.35L576.167 1058.79L578.755 1057.27ZM543 1031.5H507V1034.5H543V1031.5ZM555.3 1075.41V1044.06H552.3V1075.41H555.3ZM562.085 1040.72H555.6V1043.72H562.085V1040.72ZM508.5 1073.56V1066.19H505.5V1073.56H508.5ZM572.64 1046.83C571.886 1045.54 571.269 1044.49 570.678 1043.67C570.069 1042.83 569.421 1042.14 568.556 1041.64L567.051 1044.23C567.423 1044.45 567.778 1044.78 568.247 1045.43C568.734 1046.1 569.269 1047.01 570.052 1048.35L572.64 1046.83ZM562.085 1043.72C563.608 1043.72 564.641 1043.72 565.451 1043.8C566.228 1043.88 566.68 1044.02 567.051 1044.23L568.556 1041.64C567.688 1041.14 566.775 1040.92 565.749 1040.82C564.756 1040.72 563.549 1040.72 562.085 1040.72V1043.72ZM543 1034.5C545.589 1034.5 547.376 1034.5 548.721 1034.69C550.018 1034.87 550.678 1035.19 551.145 1035.67L553.292 1033.57C552.177 1032.43 550.773 1031.94 549.13 1031.72C547.533 1031.5 545.502 1031.5 543 1031.5V1034.5ZM555.3 1044.06C555.3 1041.5 555.303 1039.42 555.09 1037.8C554.871 1036.13 554.401 1034.71 553.292 1033.57L551.145 1035.67C551.617 1036.15 551.938 1036.84 552.115 1038.19C552.297 1039.57 552.3 1041.41 552.3 1044.06H555.3ZM577.5 1073.56C577.5 1075.31 577.499 1076.53 577.415 1077.47C577.334 1078.39 577.183 1078.9 576.97 1079.28L579.583 1080.75C580.094 1079.85 580.304 1078.86 580.404 1077.73C580.501 1076.63 580.5 1075.26 580.5 1073.56H577.5ZM570 1084.28C571.654 1084.28 572.997 1084.28 574.08 1084.18C575.186 1084.08 576.168 1083.86 577.064 1083.33L575.536 1080.75C575.179 1080.96 574.694 1081.11 573.803 1081.2C572.891 1081.28 571.711 1081.28 570 1081.28V1084.28ZM576.97 1079.28C576.623 1079.89 576.128 1080.4 575.536 1080.75L577.064 1083.33C578.114 1082.71 578.982 1081.82 579.583 1080.75L576.97 1079.28ZM580.5 1063.72C580.5 1062.28 580.512 1061.28 580.252 1060.32L577.356 1061.1C577.488 1061.59 577.5 1062.12 577.5 1063.72H580.5ZM576.167 1058.79C576.971 1060.16 577.224 1060.62 577.356 1061.1L580.252 1060.32C579.992 1059.36 579.481 1058.51 578.755 1057.27L576.167 1058.79ZM516 1081.28C514.289 1081.28 513.109 1081.28 512.197 1081.2C511.306 1081.11 510.821 1080.96 510.464 1080.75L508.936 1083.33C509.832 1083.86 510.814 1084.08 511.92 1084.18C513.003 1084.28 514.346 1084.28 516 1084.28V1081.28ZM505.5 1073.56C505.5 1075.26 505.499 1076.63 505.596 1077.73C505.696 1078.86 505.906 1079.85 506.417 1080.75L509.03 1079.28C508.817 1078.9 508.666 1078.39 508.585 1077.47C508.501 1076.53 508.5 1075.31 508.5 1073.56H505.5ZM510.464 1080.75C509.872 1080.4 509.377 1079.89 509.03 1079.28L506.417 1080.75C507.018 1081.82 507.886 1082.71 508.936 1083.33L510.464 1080.75ZM507 1045.56H528.6V1042.56H507V1045.56ZM507 1056.62H521.4V1053.62H507V1056.62Z" fill="#141B34"/>
<path d="M577.461 1169.03L578.755 1168.27V1168.27L577.461 1169.03ZM571.346 1158.59L572.64 1157.83L571.346 1158.59ZM507 1142.5C506.172 1142.5 505.5 1143.17 505.5 1144C505.5 1144.83 506.172 1145.5 507 1145.5V1142.5ZM552.3 1186.41C552.3 1187.23 552.972 1187.91 553.8 1187.91C554.628 1187.91 555.3 1187.23 555.3 1186.41H552.3ZM555.6 1151.72C554.772 1151.72 554.1 1152.39 554.1 1153.22C554.1 1154.05 554.772 1154.72 555.6 1154.72V1151.72ZM508.5 1177.19C508.5 1176.36 507.828 1175.69 507 1175.69C506.172 1175.69 505.5 1176.36 505.5 1177.19H508.5ZM567.803 1153.94L567.051 1155.23L567.051 1155.23L567.803 1153.94ZM578.277 1191.02L576.97 1190.28L578.277 1191.02ZM576.3 1193.04L575.536 1191.75L575.536 1191.75L576.3 1193.04ZM578.804 1171.71L577.356 1172.1V1172.1L578.804 1171.71ZM509.7 1193.04L510.464 1191.75L510.464 1191.75L509.7 1193.04ZM507.723 1191.02L509.03 1190.28L509.03 1190.28L507.723 1191.02ZM507 1153.56C506.172 1153.56 505.5 1154.23 505.5 1155.06C505.5 1155.89 506.172 1156.56 507 1156.56V1153.56ZM528.6 1156.56C529.428 1156.56 530.1 1155.89 530.1 1155.06C530.1 1154.23 529.428 1153.56 528.6 1153.56V1156.56ZM507 1164.62C506.172 1164.62 505.5 1165.3 505.5 1166.12C505.5 1166.95 506.172 1167.62 507 1167.62V1164.62ZM521.4 1167.62C522.228 1167.62 522.9 1166.95 522.9 1166.12C522.9 1165.3 522.228 1164.62 521.4 1164.62V1167.62ZM568.5 1193.78C568.5 1198.08 565.108 1201.5 561 1201.5V1204.5C566.833 1204.5 571.5 1199.67 571.5 1193.78H568.5ZM561 1201.5C556.892 1201.5 553.5 1198.08 553.5 1193.78H550.5C550.5 1199.67 555.167 1204.5 561 1204.5V1201.5ZM553.5 1193.78C553.5 1189.48 556.892 1186.06 561 1186.06V1183.06C555.167 1183.06 550.5 1187.9 550.5 1193.78H553.5ZM561 1186.06C565.108 1186.06 568.5 1189.48 568.5 1193.78H571.5C571.5 1187.9 566.833 1183.06 561 1183.06V1186.06ZM532.5 1193.78C532.5 1198.08 529.108 1201.5 525 1201.5V1204.5C530.833 1204.5 535.5 1199.67 535.5 1193.78H532.5ZM525 1201.5C520.892 1201.5 517.5 1198.08 517.5 1193.78H514.5C514.5 1199.67 519.167 1204.5 525 1204.5V1201.5ZM517.5 1193.78C517.5 1189.48 520.892 1186.06 525 1186.06V1183.06C519.167 1183.06 514.5 1187.9 514.5 1193.78H517.5ZM525 1186.06C529.108 1186.06 532.5 1189.48 532.5 1193.78H535.5C535.5 1187.9 530.833 1183.06 525 1183.06V1186.06ZM577.5 1174.72V1184.56H580.5V1174.72H577.5ZM552 1192.28L534 1192.28V1195.28L552 1195.28V1192.28ZM578.755 1168.27L572.64 1157.83L570.052 1159.35L576.167 1169.79L578.755 1168.27ZM543 1142.5H507V1145.5H543V1142.5ZM555.3 1186.41V1155.06H552.3V1186.41H555.3ZM562.085 1151.72H555.6V1154.72H562.085V1151.72ZM508.5 1184.56V1177.19H505.5V1184.56H508.5ZM572.64 1157.83C571.886 1156.54 571.269 1155.49 570.678 1154.67C570.069 1153.83 569.421 1153.14 568.556 1152.64L567.051 1155.23C567.423 1155.45 567.778 1155.78 568.247 1156.43C568.734 1157.1 569.269 1158.01 570.052 1159.35L572.64 1157.83ZM562.085 1154.72C563.608 1154.72 564.641 1154.72 565.451 1154.8C566.228 1154.88 566.68 1155.02 567.051 1155.23L568.556 1152.64C567.688 1152.14 566.775 1151.92 565.749 1151.82C564.756 1151.72 563.549 1151.72 562.085 1151.72V1154.72ZM543 1145.5C545.589 1145.5 547.376 1145.5 548.721 1145.69C550.018 1145.87 550.678 1146.19 551.145 1146.67L553.292 1144.57C552.177 1143.43 550.773 1142.94 549.13 1142.72C547.533 1142.5 545.502 1142.5 543 1142.5V1145.5ZM555.3 1155.06C555.3 1152.5 555.303 1150.42 555.09 1148.8C554.871 1147.13 554.401 1145.71 553.292 1144.57L551.145 1146.67C551.617 1147.15 551.938 1147.84 552.115 1149.19C552.297 1150.57 552.3 1152.41 552.3 1155.06H555.3ZM577.5 1184.56C577.5 1186.31 577.499 1187.53 577.415 1188.47C577.334 1189.39 577.183 1189.9 576.97 1190.28L579.583 1191.75C580.094 1190.85 580.304 1189.86 580.404 1188.73C580.501 1187.63 580.5 1186.26 580.5 1184.56H577.5ZM570 1195.28C571.654 1195.28 572.997 1195.28 574.08 1195.18C575.186 1195.08 576.168 1194.86 577.064 1194.33L575.536 1191.75C575.179 1191.96 574.694 1192.11 573.803 1192.2C572.891 1192.28 571.711 1192.28 570 1192.28V1195.28ZM576.97 1190.28C576.623 1190.89 576.128 1191.4 575.536 1191.75L577.064 1194.33C578.114 1193.71 578.982 1192.82 579.583 1191.75L576.97 1190.28ZM580.5 1174.72C580.5 1173.28 580.512 1172.28 580.252 1171.32L577.356 1172.1C577.488 1172.59 577.5 1173.12 577.5 1174.72H580.5ZM576.167 1169.79C576.971 1171.16 577.224 1171.62 577.356 1172.1L580.252 1171.32C579.992 1170.36 579.481 1169.51 578.755 1168.27L576.167 1169.79ZM516 1192.28C514.289 1192.28 513.109 1192.28 512.197 1192.2C511.306 1192.11 510.821 1191.96 510.464 1191.75L508.936 1194.33C509.832 1194.86 510.814 1195.08 511.92 1195.18C513.003 1195.28 514.346 1195.28 516 1195.28V1192.28ZM505.5 1184.56C505.5 1186.26 505.499 1187.63 505.596 1188.73C505.696 1189.86 505.906 1190.85 506.417 1191.75L509.03 1190.28C508.817 1189.9 508.666 1189.39 508.585 1188.47C508.501 1187.53 508.5 1186.31 508.5 1184.56H505.5ZM510.464 1191.75C509.872 1191.4 509.377 1190.89 509.03 1190.28L506.417 1191.75C507.018 1192.82 507.886 1193.71 508.936 1194.33L510.464 1191.75ZM507 1156.56H528.6V1153.56H507V1156.56ZM507 1167.62H521.4V1164.62H507V1167.62Z" fill="#FFEDD5"/>
<path d="M818.462 1073.67L827.692 1071.37M827.692 1071.37L830 1080.54M827.692 1071.37C825.642 1077.14 821.919 1082.18 816.991 1085.85C812.063 1089.52 806.151 1091.66 800 1092C794.314 1092 788.766 1090.26 784.109 1087.03C779.452 1083.79 775.912 1079.2 773.969 1073.9M781.538 1055.33L772.308 1057.63M772.308 1057.63L770 1048.46M772.308 1057.63C776.185 1047.08 788.092 1037 800 1037C805.713 1037.02 811.282 1038.79 815.942 1042.07C820.602 1045.35 824.126 1049.98 826.031 1055.33" stroke="#000001" stroke-width="3" stroke-linecap="round" stroke-linejoin="round"/>
<path d="M811.462 1180.67L820.692 1178.37M820.692 1178.37L823 1187.54M820.692 1178.37C818.642 1184.14 814.919 1189.18 809.991 1192.85C805.063 1196.52 799.151 1198.66 793 1199C787.314 1199 781.766 1197.26 777.109 1194.03C772.452 1190.79 768.912 1186.2 766.969 1180.9M774.538 1162.33L765.308 1164.63M765.308 1164.63L763 1155.46M765.308 1164.63C769.185 1154.08 781.092 1144 793 1144C798.713 1144.02 804.282 1145.79 808.942 1149.07C813.602 1152.35 817.126 1156.98 819.031 1162.33" stroke="#FFEDD5" stroke-width="3" stroke-linecap="round" stroke-linejoin="round"/>
<path d="M318.9 1159.95V1152.11C318.9 1147.25 316.909 1142.6 313.364 1139.16C309.82 1135.73 305.013 1133.8 300 1133.8C294.987 1133.8 290.18 1135.73 286.636 1139.16C283.091 1142.6 281.1 1147.25 281.1 1152.11V1159.95M278.4 1159.95H321.6C324.582 1159.95 327 1162.3 327 1165.18V1196.57C327 1199.46 324.582 1201.8 321.6 1201.8H278.4C275.418 1201.8 273 1199.46 273 1196.57V1165.18C273 1162.3 275.418 1159.95 278.4 1159.95ZM302.7 1180.88C302.7 1182.32 301.491 1183.49 300 1183.49C298.509 1183.49 297.3 1182.32 297.3 1180.88C297.3 1179.43 298.509 1178.26 300 1178.26C301.491 1178.26 302.7 1179.43 302.7 1180.88Z" stroke="#FFEDD5" stroke-width="3" stroke-linecap="round" stroke-linejoin="round"/>
<circle cx="340.5" cy="1328.5" r="77.5" fill="#840000"/>
<path d="M359.9 1321.15V1313.31C359.9 1308.45 357.909 1303.8 354.364 1300.36C350.82 1296.93 346.013 1295 341 1295C335.987 1295 331.18 1296.93 327.636 1300.36C324.091 1303.8 322.1 1308.45 322.1 1313.31V1321.15M319.4 1321.15H362.6C365.582 1321.15 368 1323.5 368 1326.38V1357.77C368 1360.66 365.582 1363 362.6 1363H319.4C316.418 1363 314 1360.66 314 1357.77V1326.38C314 1323.5 316.418 1321.15 319.4 1321.15ZM343.7 1342.08C343.7 1343.52 342.491 1344.69 341 1344.69C339.509 1344.69 338.3 1343.52 338.3 1342.08C338.3 1340.63 339.509 1339.46 341 1339.46C342.491 1339.46 343.7 1340.63 343.7 1342.08Z" stroke="#FFEDD5" stroke-width="3" stroke-linecap="round" stroke-linejoin="round"/>
<circle cx="536.5" cy="1323.5" r="77.5" fill="#840000"/>
<path fill-rule="evenodd" clip-rule="evenodd" d="M537 1294.73C531.753 1294.73 526.721 1296.83 523.01 1300.57C519.3 1304.3 517.216 1309.37 517.216 1314.65C517.216 1317.3 518.427 1321.05 520.378 1325.3C522.31 1329.51 524.896 1334.07 527.495 1338.29C530.093 1342.51 532.692 1346.37 534.643 1349.17C535.618 1350.57 536.43 1351.71 536.998 1352.5L537 1352.5L537.002 1352.5C537.57 1351.71 538.382 1350.57 539.357 1349.17C541.308 1346.37 543.907 1342.51 546.505 1338.29C549.104 1334.07 551.69 1329.51 553.622 1325.3C555.573 1321.05 556.784 1317.3 556.784 1314.65C556.784 1309.37 554.7 1304.3 550.99 1300.57C547.279 1296.83 542.247 1294.73 537 1294.73ZM537 1354.38C536.113 1355.05 536.113 1355.05 536.113 1355.05L536.097 1355.03L536.051 1354.97C536.011 1354.91 535.951 1354.83 535.874 1354.73C535.72 1354.52 535.494 1354.21 535.206 1353.81C534.632 1353.02 533.812 1351.87 532.828 1350.45C530.862 1347.63 528.238 1343.73 525.612 1339.47C522.989 1335.21 520.352 1330.57 518.366 1326.24C516.401 1321.95 515 1317.82 515 1314.65C515 1308.78 517.318 1303.14 521.444 1298.99C525.569 1294.83 531.165 1292.5 537 1292.5C542.835 1292.5 548.431 1294.83 552.556 1298.99C556.682 1303.14 559 1308.78 559 1314.65C559 1317.82 557.599 1321.95 555.634 1326.24C553.648 1330.57 551.011 1335.21 548.388 1339.47C545.762 1343.73 543.138 1347.63 541.172 1350.45C540.188 1351.87 539.368 1353.02 538.794 1353.81C538.506 1354.21 538.28 1354.52 538.126 1354.73C538.049 1354.83 537.989 1354.91 537.949 1354.97L537.903 1355.03L537.888 1355.05C537.888 1355.05 537.887 1355.05 537 1354.38ZM537 1354.38L537.888 1355.05C537.679 1355.33 537.349 1355.5 537 1355.5C536.651 1355.5 536.322 1355.33 536.113 1355.05L537 1354.38ZM537 1308.75C533.766 1308.75 531.144 1311.39 531.144 1314.65C531.144 1317.91 533.766 1320.55 537 1320.55C540.234 1320.55 542.856 1317.91 542.856 1314.65C542.856 1311.39 540.234 1308.75 537 1308.75ZM528.928 1314.65C528.928 1310.16 532.542 1306.52 537 1306.52C541.458 1306.52 545.072 1310.16 545.072 1314.65C545.072 1319.14 541.458 1322.78 537 1322.78C532.542 1322.78 528.928 1319.14 528.928 1314.65Z" fill="#FFEDD5"/>
<path d="M536.113 1355.05C536.113 1355.05 536.113 1355.05 537 1354.38M536.113 1355.05C536.322 1355.33 536.651 1355.5 537 1355.5C537.349 1355.5 537.679 1355.33 537.888 1355.05M536.113 1355.05L537 1354.38M536.113 1355.05L536.097 1355.03L536.051 1354.97C536.011 1354.91 535.951 1354.83 535.874 1354.73C535.72 1354.52 535.494 1354.21 535.206 1353.81C534.632 1353.02 533.812 1351.87 532.828 1350.45C530.862 1347.63 528.238 1343.73 525.612 1339.47C522.989 1335.21 520.352 1330.57 518.366 1326.24C516.401 1321.95 515 1317.82 515 1314.65C515 1308.78 517.318 1303.14 521.444 1298.99C525.569 1294.83 531.165 1292.5 537 1292.5C542.835 1292.5 548.431 1294.83 552.556 1298.99C556.682 1303.14 559 1308.78 559 1314.65C559 1317.82 557.599 1321.95 555.634 1326.24C553.648 1330.57 551.011 1335.21 548.388 1339.47C545.762 1343.73 543.138 1347.63 541.172 1350.45C540.188 1351.87 539.368 1353.02 538.794 1353.81C538.506 1354.21 538.28 1354.52 538.126 1354.73C538.049 1354.83 537.989 1354.91 537.949 1354.97L537.903 1355.03L537.888 1355.05M537 1354.38C537.887 1355.05 537.888 1355.05 537.888 1355.05M537 1354.38L537.888 1355.05M523.01 1300.57C526.721 1296.83 531.753 1294.73 537 1294.73C542.247 1294.73 547.279 1296.83 550.99 1300.57C554.7 1304.3 556.784 1309.37 556.784 1314.65C556.784 1317.3 555.573 1321.05 553.622 1325.3C551.69 1329.51 549.104 1334.07 546.505 1338.29C543.907 1342.51 541.308 1346.37 539.357 1349.17C538.382 1350.57 537.57 1351.71 537.002 1352.5L537 1352.5L536.998 1352.5C536.43 1351.71 535.618 1350.57 534.643 1349.17C532.692 1346.37 530.093 1342.51 527.495 1338.29C524.896 1334.07 522.31 1329.51 520.378 1325.3C518.427 1321.05 517.216 1317.3 517.216 1314.65C517.216 1309.37 519.3 1304.3 523.01 1300.57ZM531.144 1314.65C531.144 1311.39 533.766 1308.75 537 1308.75C540.234 1308.75 542.856 1311.39 542.856 1314.65C542.856 1317.91 540.234 1320.55 537 1320.55C533.766 1320.55 531.144 1317.91 531.144 1314.65ZM537 1306.52C532.542 1306.52 528.928 1310.16 528.928 1314.65C528.928 1319.14 532.542 1322.78 537 1322.78C541.458 1322.78 545.072 1319.14 545.072 1314.65C545.072 1310.16 541.458 1306.52 537 1306.52Z" stroke="#FFEDD5" stroke-linecap="round" stroke-linejoin="round"/>
<circle cx="746.5" cy="1323.5" r="77.5" fill="#840000"/>
<path d="M781.461 1319.53L782.755 1318.77V1318.77L781.461 1319.53ZM775.346 1309.09L776.64 1308.33L775.346 1309.09ZM711 1293C710.172 1293 709.5 1293.67 709.5 1294.5C709.5 1295.33 710.172 1296 711 1296V1293ZM756.3 1336.91C756.3 1337.73 756.972 1338.41 757.8 1338.41C758.628 1338.41 759.3 1337.73 759.3 1336.91H756.3ZM759.6 1302.22C758.772 1302.22 758.1 1302.89 758.1 1303.72C758.1 1304.55 758.772 1305.22 759.6 1305.22V1302.22ZM712.5 1327.69C712.5 1326.86 711.828 1326.19 711 1326.19C710.172 1326.19 709.5 1326.86 709.5 1327.69H712.5ZM771.803 1304.44L771.051 1305.73L771.051 1305.73L771.803 1304.44ZM782.277 1341.52L780.97 1340.78L782.277 1341.52ZM780.3 1343.54L779.536 1342.25L779.536 1342.25L780.3 1343.54ZM782.804 1322.21L781.356 1322.6V1322.6L782.804 1322.21ZM713.7 1343.54L714.464 1342.25L714.464 1342.25L713.7 1343.54ZM711.723 1341.52L713.03 1340.78L713.03 1340.78L711.723 1341.52ZM711 1304.06C710.172 1304.06 709.5 1304.73 709.5 1305.56C709.5 1306.39 710.172 1307.06 711 1307.06V1304.06ZM732.6 1307.06C733.428 1307.06 734.1 1306.39 734.1 1305.56C734.1 1304.73 733.428 1304.06 732.6 1304.06V1307.06ZM711 1315.12C710.172 1315.12 709.5 1315.8 709.5 1316.62C709.5 1317.45 710.172 1318.12 711 1318.12V1315.12ZM725.4 1318.12C726.228 1318.12 726.9 1317.45 726.9 1316.62C726.9 1315.8 726.228 1315.12 725.4 1315.12V1318.12ZM772.5 1344.28C772.5 1348.58 769.108 1352 765 1352V1355C770.833 1355 775.5 1350.17 775.5 1344.28H772.5ZM765 1352C760.892 1352 757.5 1348.58 757.5 1344.28H754.5C754.5 1350.17 759.167 1355 765 1355V1352ZM757.5 1344.28C757.5 1339.98 760.892 1336.56 765 1336.56V1333.56C759.167 1333.56 754.5 1338.4 754.5 1344.28H757.5ZM765 1336.56C769.108 1336.56 772.5 1339.98 772.5 1344.28H775.5C775.5 1338.4 770.833 1333.56 765 1333.56V1336.56ZM736.5 1344.28C736.5 1348.58 733.108 1352 729 1352V1355C734.833 1355 739.5 1350.17 739.5 1344.28H736.5ZM729 1352C724.892 1352 721.5 1348.58 721.5 1344.28H718.5C718.5 1350.17 723.167 1355 729 1355V1352ZM721.5 1344.28C721.5 1339.98 724.892 1336.56 729 1336.56V1333.56C723.167 1333.56 718.5 1338.4 718.5 1344.28H721.5ZM729 1336.56C733.108 1336.56 736.5 1339.98 736.5 1344.28H739.5C739.5 1338.4 734.833 1333.56 729 1333.56V1336.56ZM781.5 1325.22V1335.06H784.5V1325.22H781.5ZM756 1342.78L738 1342.78V1345.78L756 1345.78V1342.78ZM782.755 1318.77L776.64 1308.33L774.052 1309.85L780.167 1320.29L782.755 1318.77ZM747 1293H711V1296H747V1293ZM759.3 1336.91V1305.56H756.3V1336.91H759.3ZM766.085 1302.22H759.6V1305.22H766.085V1302.22ZM712.5 1335.06V1327.69H709.5V1335.06H712.5ZM776.64 1308.33C775.886 1307.04 775.269 1305.99 774.678 1305.17C774.069 1304.33 773.421 1303.64 772.556 1303.14L771.051 1305.73C771.423 1305.95 771.778 1306.28 772.247 1306.93C772.734 1307.6 773.269 1308.51 774.052 1309.85L776.64 1308.33ZM766.085 1305.22C767.608 1305.22 768.641 1305.22 769.451 1305.3C770.228 1305.38 770.68 1305.52 771.051 1305.73L772.556 1303.14C771.688 1302.64 770.775 1302.42 769.749 1302.32C768.756 1302.22 767.549 1302.22 766.085 1302.22V1305.22ZM747 1296C749.589 1296 751.376 1296 752.721 1296.19C754.018 1296.37 754.678 1296.69 755.145 1297.17L757.292 1295.07C756.177 1293.93 754.773 1293.44 753.13 1293.22C751.533 1293 749.502 1293 747 1293V1296ZM759.3 1305.56C759.3 1303 759.303 1300.92 759.09 1299.3C758.871 1297.63 758.401 1296.21 757.292 1295.07L755.145 1297.17C755.617 1297.65 755.938 1298.34 756.115 1299.69C756.297 1301.07 756.3 1302.91 756.3 1305.56H759.3ZM781.5 1335.06C781.5 1336.81 781.499 1338.03 781.415 1338.97C781.334 1339.89 781.183 1340.4 780.97 1340.78L783.583 1342.25C784.094 1341.35 784.304 1340.36 784.404 1339.23C784.501 1338.13 784.5 1336.76 784.5 1335.06H781.5ZM774 1345.78C775.654 1345.78 776.997 1345.78 778.08 1345.68C779.186 1345.58 780.168 1345.36 781.064 1344.83L779.536 1342.25C779.179 1342.46 778.694 1342.61 777.803 1342.7C776.891 1342.78 775.711 1342.78 774 1342.78V1345.78ZM780.97 1340.78C780.623 1341.39 780.128 1341.9 779.536 1342.25L781.064 1344.83C782.114 1344.21 782.982 1343.32 783.583 1342.25L780.97 1340.78ZM784.5 1325.22C784.5 1323.78 784.512 1322.78 784.252 1321.82L781.356 1322.6C781.488 1323.09 781.5 1323.62 781.5 1325.22H784.5ZM780.167 1320.29C780.971 1321.66 781.224 1322.12 781.356 1322.6L784.252 1321.82C783.992 1320.86 783.481 1320.01 782.755 1318.77L780.167 1320.29ZM720 1342.78C718.289 1342.78 717.109 1342.78 716.197 1342.7C715.306 1342.61 714.821 1342.46 714.464 1342.25L712.936 1344.83C713.832 1345.36 714.814 1345.58 715.92 1345.68C717.003 1345.78 718.346 1345.78 720 1345.78V1342.78ZM709.5 1335.06C709.5 1336.76 709.499 1338.13 709.596 1339.23C709.696 1340.36 709.906 1341.35 710.417 1342.25L713.03 1340.78C712.817 1340.4 712.666 1339.89 712.585 1338.97C712.501 1338.03 712.5 1336.81 712.5 1335.06H709.5ZM714.464 1342.25C713.872 1341.9 713.377 1341.39 713.03 1340.78L710.417 1342.25C711.018 1343.32 711.886 1344.21 712.936 1344.83L714.464 1342.25ZM711 1307.06H732.6V1304.06H711V1307.06ZM711 1318.12H725.4V1315.12H711V1318.12Z" fill="#FFEDD5"/>
<circle cx="956.5" cy="1323.5" r="77.5" fill="#840000"/>
<path d="M943.886 1352.38L944.47 1351L943.886 1352.38ZM927 1308.25C927 1307.42 926.328 1306.75 925.5 1306.75C924.672 1306.75 924 1307.42 924 1308.25H927ZM955.35 1321.97C955.35 1321.14 954.678 1320.47 953.85 1320.47C953.022 1320.47 952.35 1321.14 952.35 1321.97L955.35 1321.97ZM980.7 1322.42C980.7 1323.25 981.372 1323.92 982.2 1323.92C983.028 1323.92 983.7 1323.25 983.7 1322.42H980.7ZM983.7 1308.25C983.7 1307.42 983.028 1306.75 982.2 1306.75C981.372 1306.75 980.7 1307.42 980.7 1308.25H983.7ZM957.461 1356.39C958.25 1356.13 958.682 1355.29 958.427 1354.5C958.173 1353.71 957.327 1353.28 956.539 1353.53L957.461 1356.39ZM974.839 1341.84C974.254 1342.43 974.254 1343.38 974.839 1343.96C975.425 1344.55 976.375 1344.55 976.961 1343.96L974.839 1341.84ZM979.813 1341.11C980.399 1340.52 980.399 1339.57 979.813 1338.99C979.228 1338.4 978.278 1338.4 977.692 1338.99L979.813 1341.11ZM933.075 1312.28L933.728 1310.92H933.728L933.075 1312.28ZM942.277 1316.73L941.623 1318.08L942.277 1316.73ZM965.423 1316.73L964.77 1315.38L965.423 1316.73ZM974.625 1312.28L973.972 1310.92L974.625 1312.28ZM933.075 1301.07L933.728 1302.43L933.075 1301.07ZM942.277 1296.62L941.623 1295.27L942.277 1296.62ZM965.423 1296.62L964.77 1297.97L965.423 1296.62ZM974.625 1301.07L973.972 1302.43L974.625 1301.07ZM935.621 1322.66C934.88 1322.29 933.979 1322.59 933.608 1323.33C933.238 1324.07 933.538 1324.97 934.279 1325.34L935.621 1322.66ZM940.579 1328.49C941.32 1328.86 942.221 1328.56 942.592 1327.82C942.962 1327.08 942.662 1326.18 941.921 1325.81L940.579 1328.49ZM970.271 1300.14C971.012 1299.77 971.312 1298.87 970.942 1298.13C970.571 1297.39 969.67 1297.09 968.929 1297.46L970.271 1300.14ZM937.429 1313.21C936.688 1313.58 936.388 1314.48 936.758 1315.22C937.129 1315.96 938.03 1316.26 938.771 1315.89L937.429 1313.21ZM943.303 1353.76C948.11 1355.79 950.898 1357 953.85 1357V1354C951.648 1354 949.511 1353.13 944.47 1351L943.303 1353.76ZM944.47 1351C938.295 1348.39 933.819 1346.49 930.868 1344.72C927.87 1342.93 927 1341.58 927 1340.26H924C924 1343.29 926.194 1345.42 929.325 1347.3C932.503 1349.2 937.22 1351.19 943.303 1353.76L944.47 1351ZM927 1340.26V1308.25H924V1340.26H927ZM955.35 1355.5L955.35 1321.97L952.35 1321.97L952.35 1355.5H955.35ZM983.7 1322.42V1308.25H980.7V1322.42H983.7ZM956.539 1353.53C955.539 1353.86 954.733 1354 953.85 1354V1357C955.112 1357 956.233 1356.78 957.461 1356.39L956.539 1353.53ZM990 1342.9C990 1335.11 983.687 1328.8 975.9 1328.8V1331.8C982.03 1331.8 987 1336.77 987 1342.9H990ZM975.9 1328.8C968.113 1328.8 961.8 1335.11 961.8 1342.9H964.8C964.8 1336.77 969.77 1331.8 975.9 1331.8V1328.8ZM961.8 1342.9C961.8 1350.69 968.113 1357 975.9 1357V1354C969.77 1354 964.8 1349.03 964.8 1342.9H961.8ZM975.9 1357C983.687 1357 990 1350.69 990 1342.9H987C987 1349.03 982.03 1354 975.9 1354V1357ZM976.961 1343.96L979.813 1341.11L977.692 1338.99L974.839 1341.84L976.961 1343.96ZM932.421 1313.63L941.623 1318.08L942.93 1315.38L933.728 1310.92L932.421 1313.63ZM966.077 1318.08L975.279 1313.63L973.972 1310.92L964.77 1315.38L966.077 1318.08ZM933.728 1302.43L942.93 1297.97L941.623 1295.27L932.421 1299.72L933.728 1302.43ZM964.77 1297.97L973.972 1302.43L975.279 1299.72L966.077 1295.27L964.77 1297.97ZM942.93 1297.97C948.739 1295.16 951.22 1294 953.85 1294V1291C950.371 1291 947.173 1292.59 941.623 1295.27L942.93 1297.97ZM966.077 1295.27C960.527 1292.59 957.329 1291 953.85 1291V1294C956.48 1294 958.961 1295.16 964.77 1297.97L966.077 1295.27ZM975.279 1313.63C977.758 1312.43 979.772 1311.46 981.146 1310.53C982.5 1309.61 983.7 1308.43 983.7 1306.67H980.7C980.7 1306.85 980.638 1307.25 979.467 1308.04C978.316 1308.82 976.542 1309.68 973.972 1310.92L975.279 1313.63ZM973.972 1302.43C976.542 1303.67 978.316 1304.53 979.467 1305.31C980.638 1306.1 980.7 1306.5 980.7 1306.67H983.7C983.7 1304.92 982.5 1303.74 981.146 1302.82C979.772 1301.89 977.758 1300.92 975.279 1299.72L973.972 1302.43ZM941.623 1318.08C947.173 1320.76 950.371 1322.35 953.85 1322.35V1319.35C951.22 1319.35 948.739 1318.19 942.93 1315.38L941.623 1318.08ZM964.77 1315.38C958.961 1318.19 956.48 1319.35 953.85 1319.35V1322.35C957.329 1322.35 960.527 1320.76 966.077 1318.08L964.77 1315.38ZM933.728 1310.92C931.158 1309.68 929.384 1308.82 928.233 1308.04C927.062 1307.25 927 1306.85 927 1306.67H924C924 1308.43 925.2 1309.61 926.554 1310.53C927.928 1311.46 929.942 1312.43 932.421 1313.63L933.728 1310.92ZM932.421 1299.72C929.942 1300.92 927.928 1301.89 926.554 1302.82C925.2 1303.74 924 1304.92 924 1306.67H927C927 1306.5 927.062 1306.1 928.233 1305.31C929.384 1304.53 931.158 1303.67 933.728 1302.43L932.421 1299.72ZM934.279 1325.34L940.579 1328.49L941.921 1325.81L935.621 1322.66L934.279 1325.34ZM968.929 1297.46L937.429 1313.21L938.771 1315.89L970.271 1300.14L968.929 1297.46Z" fill="#FFEDD5"/>
<circle cx="1153.5" cy="1323.5" r="77.5" fill="#840000"/>
<path d="M1172.46 1333.17L1181.69 1330.87M1181.69 1330.87L1184 1340.04M1181.69 1330.87C1179.64 1336.64 1175.92 1341.68 1170.99 1345.35C1166.06 1349.02 1160.15 1351.16 1154 1351.5C1148.31 1351.5 1142.77 1349.76 1138.11 1346.53C1133.45 1343.29 1129.91 1338.7 1127.97 1333.4M1135.54 1314.83L1126.31 1317.13M1126.31 1317.13L1124 1307.96M1126.31 1317.13C1130.18 1306.58 1142.09 1296.5 1154 1296.5C1159.71 1296.52 1165.28 1298.29 1169.94 1301.57C1174.6 1304.85 1178.13 1309.48 1180.03 1314.83" stroke="#FFEDD5" stroke-width="3" stroke-linecap="round" stroke-linejoin="round"/>
<rect x="243.5" y="1551.3" width="226" height="73" rx="4.5" stroke="#9747FF" stroke-dasharray="10 5"/>
<path fill-rule="evenodd" clip-rule="evenodd" d="M280.869 1594.71H277.708L275.338 1585.4C275.225 1584.97 274.986 1584.59 274.635 1584.41C273.758 1583.96 272.792 1583.61 271.737 1583.43V1583.07H276.83C277.532 1583.07 278.059 1583.61 278.147 1584.23L279.377 1590.95L282.537 1583.07H285.61L280.869 1594.71ZM287.367 1594.71H284.382L286.84 1583.07H289.825L287.367 1594.71ZM293.688 1586.29C293.775 1585.67 294.303 1585.31 294.917 1585.31C295.884 1585.22 296.937 1585.4 297.815 1585.84L298.342 1583.34C297.464 1582.98 296.497 1582.8 295.62 1582.8C292.723 1582.8 290.614 1584.41 290.614 1586.65C290.614 1588.35 292.108 1589.25 293.162 1589.78C294.303 1590.32 294.742 1590.68 294.654 1591.22C294.654 1592.02 293.775 1592.38 292.898 1592.38C291.844 1592.38 290.79 1592.11 289.825 1591.66L289.298 1594.17C290.352 1594.62 291.493 1594.8 292.547 1594.8C295.796 1594.89 297.815 1593.27 297.815 1590.86C297.815 1587.81 293.688 1587.63 293.688 1586.29ZM308.263 1594.71L305.893 1583.07H303.347C302.819 1583.07 302.292 1583.43 302.117 1583.96L297.727 1594.71H300.8L301.414 1593.01H305.19L305.541 1594.71H308.263ZM303.786 1586.2L304.663 1590.59H302.204L303.786 1586.2Z" fill="#1434CB"/>
<path d="M363 1578.8C360.571 1580.62 359 1583.53 359 1586.8C359 1590.07 360.571 1592.98 363 1594.8C361.329 1596.06 359.251 1596.8 357 1596.8C351.477 1596.8 347 1592.32 347 1586.8C347 1581.28 351.477 1576.8 357 1576.8C359.251 1576.8 361.329 1577.54 363 1578.8Z" fill="#ED0006"/>
<path d="M363 1594.8C360.571 1592.98 359 1590.07 359 1586.8C359 1583.53 360.571 1580.62 363 1578.8C365.429 1580.62 367 1583.53 367 1586.8C367 1590.07 365.429 1592.98 363 1594.8Z" fill="#FF5E00"/>
<path d="M363 1594.8C365.429 1592.98 367 1590.07 367 1586.8C367 1583.53 365.429 1580.62 363 1578.8C364.671 1577.54 366.749 1576.8 369 1576.8C374.523 1576.8 379 1581.28 379 1586.8C379 1592.32 374.523 1596.8 369 1596.8C366.749 1596.8 364.671 1596.06 363 1594.8Z" fill="#F9A000"/>
<rect x="409.5" y="1571.3" width="40" height="27" rx="2.5" fill="url(#paint0_linear_2068_6966)" stroke="#F1F1F1"/>
<path fill-rule="evenodd" clip-rule="evenodd" d="M424.428 1584.39H429.979C429.93 1583.2 429.65 1581.97 428.802 1581.19C427.792 1580.25 426.023 1579.9 424.442 1579.9C422.797 1579.9 420.977 1580.28 419.961 1581.29C419.086 1582.15 418.896 1583.55 418.896 1584.8C418.896 1586.11 419.267 1587.64 420.217 1588.52C421.227 1589.45 422.864 1589.7 424.442 1589.7C425.975 1589.7 427.636 1589.42 428.641 1588.53C429.642 1587.64 429.988 1586.15 429.988 1584.8V1584.79H424.428V1584.39ZM430.352 1584.79V1589.48H438.074V1589.47C439.204 1589.41 440.103 1588.4 440.103 1587.17C440.103 1585.93 439.204 1584.85 438.074 1584.79V1584.79H430.352ZM437.987 1580.1C439.088 1580.1 439.962 1581.04 439.962 1582.24C439.962 1583.37 439.159 1584.29 438.138 1584.39H430.352V1580.09H437.743C437.788 1580.08 437.841 1580.09 437.893 1580.09C437.925 1580.09 437.957 1580.1 437.987 1580.1Z" fill="#FEFEFE"/>
<rect x="243.5" y="1681.3" width="149" height="71" rx="4.5" stroke="#9747FF" stroke-dasharray="10 5"/>
<path d="M279 1728.8L277.067 1727.07C270.2 1720.97 265.667 1716.94 265.667 1711.99C265.667 1707.97 268.894 1704.8 273 1704.8C275.32 1704.8 277.547 1705.86 279 1707.53C280.454 1705.86 282.68 1704.8 285 1704.8C289.107 1704.8 292.334 1707.97 292.334 1711.99C292.334 1716.94 287.8 1720.97 280.934 1727.09L279 1728.8Z" stroke="#840000" stroke-width="2.5" stroke-linecap="square"/>
<path d="M357 1728.8L355.067 1727.07C348.2 1720.97 343.667 1716.94 343.667 1711.99C343.667 1707.97 346.894 1704.8 351 1704.8C353.32 1704.8 355.547 1705.86 357 1707.53C358.454 1705.86 360.68 1704.8 363 1704.8C367.107 1704.8 370.334 1707.97 370.334 1711.99C370.334 1716.94 365.8 1720.97 358.934 1727.09L357 1728.8Z" fill="#840000" stroke="#840000" stroke-width="4" stroke-linecap="square"/>
<defs>
<linearGradient id="paint0_linear_2068_6966" x1="420.121" y1="1567.25" x2="410.332" y2="1597.6" gradientUnits="userSpaceOnUse">
<stop stop-color="#222E72"/>
<stop offset="0.591647" stop-color="#40CBFF"/>
<stop offset="1" stop-color="#3CB792"/>
</linearGradient>
</defs>
</svg>
