<svg width="27" height="26" viewBox="0 0 27 26" fill="none" xmlns="http://www.w3.org/2000/svg">
<g id="elements">
<path id="Vector 5338" d="M14.1 25.0002H12.1667C7.13835 25.0002 4.62419 25.0002 3.0621 23.4939C1.5 21.9876 1.5 19.5632 1.5 14.7145L1.5 8.2002L25.5 8.2002V11.2002" stroke="#675F5F" stroke-width="2" stroke-linecap="round" stroke-linejoin="round"/>
<path id="Vector" d="M20.7 13C18.0491 13 15.9 15.1707 15.9 17.8484C15.9 19.3795 16.5 20.57 17.7 21.6334C18.5459 22.3829 19.5705 23.6279 20.1858 24.637C20.4808 25.121 20.898 25.121 21.2143 24.637C21.8607 23.6479 22.8542 22.3829 23.7 21.6334C24.9 20.57 25.5 19.3795 25.5 17.8484C25.5 15.1707 23.351 13 20.7 13Z" stroke="#675F5F" stroke-width="2" stroke-linejoin="round"/>
<path id="Vector_2" d="M20.7 17.7998H20.7107" stroke="#675F5F" stroke-width="2" stroke-linecap="round" stroke-linejoin="round"/>
<path id="Vector_3" d="M1.5 8.2L2.65385 5.43077C3.54872 3.28308 3.99615 2.20924 4.90308 1.60462C5.81001 1 6.97334 1 9.3 1L17.7 1C20.0267 1 21.19 1 22.0969 1.60462C23.0038 2.20924 23.4513 3.28308 24.3462 5.43077L25.5 8.2" stroke="#675F5F" stroke-width="2" stroke-linecap="round"/>
<path id="Vector 7284" d="M13.5 8.2L13.5 1" stroke="#675F5F" stroke-width="2" stroke-linecap="round"/>
<path id="Vector 7282" d="M11.1 13H13.5" stroke="#675F5F" stroke-width="2" stroke-linecap="round"/>
</g>
</svg>
